o Default
v -0.53125 0 0.03125
v 0 0 -0.03125
v -0.53125 0 -0.03125
v 0 0 0.03125
v 0.46875 -0.25 0
v -0.46875 -0.0625 0
v 0.46875 -0.0625 0
v -0.46875 -0.25 0
v 0.46875 -0.25 -0.03125
v -0.46875 -0.25 0.03125
v 0.46875 -0.25 0.03125
v -0.46875 -0.25 -0.03125
v 0.46875 -0.3125 -0.03125
v 0.46875 0 0.03125
v 0.46875 0 -0.03125
v 0.46875 -0.3125 0.03125
v -0.46875 -0.3125 0.03125
v -0.46875 0 -0.03125
v -0.46875 0 0.03125
v -0.46875 -0.3125 -0.03125
v -0.53125 -0.3125 -0.03125
v 0.53125 -0.3125 0.03125
v -0.53125 -0.3125 0.03125
v 0.53125 -0.3125 -0.03125
v 0.53125 0 -0.03125
v 0.53125 0 0.03125
v -0.46875 -0.0625 -0.03125
v 0.46875 -0.0625 0.03125
v -0.46875 -0.0625 0.03125
v 0.46875 -0.0625 -0.03125
vt 0.68359375 0.9375
vt 0.6874998807907104 0.908203125
vt 0.6875 0.9375
vt 0.6835936307907104 0.908203125
vt 0.47265625 0.18359375
vt 0.48437511920928955 0.125
vt 0.484375 0.18359375
vt 0.47265636920928955 0.125
vt 0.6874998211860657 0.87890625
vt 0.6835935711860657 0.87890625
vt 0.6796875596046448 0.91796875
vt 0.68359375 0.9179686903953552
vt 0.6796875 0.9375
vt 0.6835938096046448 0.91796875
vt 0.6875 0.9179686903953552
vn 0 1 0
vn 0 0 -1
vn 0 0 1
vn -1 0 0
vn 1 0 0
vn 0 -1 0
g Exit_Sign
usemtl 0
f 1/1/1 2/2/1 3/3/1
f 1/1/1 4/4/1 2/2/1
f 5/5/2 6/6/2 7/7/2
f 5/5/2 8/8/2 6/6/2
f 8/5/3 7/6/3 6/7/3
f 8/5/3 5/8/3 7/6/3
f 9/1/1 10/9/1 11/3/1
f 9/1/1 12/10/1 10/9/1
f 13/1/4 14/11/4 15/12/4
f 13/1/4 16/13/4 14/11/4
f 17/1/5 18/11/5 19/12/5
f 17/1/5 20/13/5 18/11/5
f 13/1/2 12/9/2 9/3/2
f 13/1/2 20/10/2 12/9/2
f 21/1/6 22/9/6 23/3/6
f 21/1/6 24/10/6 22/9/6
f 20/1/2 3/11/2 18/12/2
f 20/1/2 21/13/2 3/11/2
f 24/3/2 15/14/2 25/15/2
f 24/3/2 13/1/2 15/14/2
f 22/3/5 25/14/5 26/15/5
f 22/3/5 24/1/5 25/14/5
f 21/1/4 1/11/4 3/12/4
f 21/1/4 23/13/4 1/11/4
f 17/1/3 11/9/3 10/3/3
f 17/1/3 16/10/3 11/9/3
f 27/1/6 28/9/6 29/3/6
f 27/1/6 30/10/6 28/9/6
f 23/1/3 19/11/3 1/12/3
f 23/1/3 17/13/3 19/11/3
f 16/3/3 26/14/3 14/15/3
f 16/3/3 22/1/3 26/14/3
f 18/1/2 30/9/2 27/3/2
f 18/1/2 15/10/2 30/9/2
f 4/4/1 25/9/1 2/2/1
f 4/4/1 26/10/1 25/9/1
f 29/1/3 14/9/3 19/3/3
f 29/1/3 28/10/3 14/9/3
