o Default
v 0.78125 1.375 -0.046875
v 0.78125 1.375 -0.015625
v 0.84375 0.796875 -0.015625
v 0.84375 0.796875 0.015625
v 0.875 1.125 0.375
v 0.875 0.828125 -0.375
v 0.875 0.828125 0.375
v 0.875 1.125 -0.375
v 0 0 0
v 1 0 0
v 1 0 -1
v 0 0 -1
v -1 0 0
v -1 0 -1
v -1 0 1
v 0 0 1
v 1 0 1
v -0.5 0.125 0
v -0.5 0.125 -1
v -0.75 0.375 -1
v -0.75 0.375 0
v -0.5 1.625 1
v -0.5 1.625 0
v -0.1875 1.75 0
v -0.1875 1.75 1
v -0.75 0.375 1
v -0.875 0.6875 0
v -0.875 0.6875 1
v -0.5 0.125 1
v 0.34375 1.625 0
v 0.28125 1.625 -1
v 0.34375 1.625 -1
v 0.34375 1.625 1
v 0.34375 1.6875 0
v -0.28125 1.625 0
v -0.34375 1.625 -1
v -0.28125 1.625 -1
v 0.28125 1.625 0
v -0.875 1.125 1
v -0.875 1.125 0
v -0.75 1.375 0
v -0.75 1.375 1
v 0.015625 1.71875 -0.5
v -0.015625 1.71875 -0.5
v -0.015625 1.71875 -1
v 0.015625 1.71875 -1
v -0.875 0.6875 -1
v 0.015625 1.75 -1
v 0.015625 1.75 -0.5
v -0.1875 1.75 -1
v 0.1875 1.75 -1
v 0.1875 1.75 0
v -0.875 1.125 -1
v -0.75 1.375 -1
v -0.015625 1.75 -0.5
v -0.015625 1.75 -1
v 0.28125 1.625 1
v 0.28125 1.71875 1
v 0.875 1.125 -1
v 0.875 1.125 0
v 0.78125 1.375 0
v 0.75 1.375 -1
v 0.5 1.625 0
v 0.5 1.625 -1
v -0.28125 1.625 1
v -0.34375 1.625 0
v -0.34375 1.6875 1
v -0.34375 1.6875 0
v 2 0 -1
v 2 0 0
v -0.28125 1.71875 -1
v -0.28125 1.71875 0
v -0.34375 1.6875 -1
v 0.34375 1.6875 -1
v 0.09375 1.625 0.5
v 0.09375 1.625 -0.5
v 0.09375 1.75 -0.5
v 0.75 1.375 1
v 0.5 1.625 1
v 0.1875 1.75 1
v 0.28125 1.71875 0
v 0.34375 1.6875 1
v 0.28125 1.71875 -1
v -0.34375 1.625 1
v -0.28125 1.71875 1
v 0.09375 1.75 0.5
v -0.09375 1.625 -0.5
v -0.09375 1.625 0.5
v -0.09375 1.75 0.5
v -0.09375 1.75 -0.5
v 1.375 0.765625 0.15625
v 1.3125 0.765625 0.125
v 1.375 0.453125 0.15625
v 1.3125 0.453125 0.125
v 0.015625 1.71875 1
v 0.015625 1.75 0.5
v 0.015625 1.75 1
v 0.015625 1.71875 0.5
v -0.015625 1.71875 0.5
v -0.015625 1.75 1
v -0.015625 1.75 0.5
v -0.015625 1.71875 1
v 0.5 0.125 -1
v 0.5 0.125 0
v -0.5 1.625 -1
v 0.5 0.125 1
v 0.75 0.375 -1
v 0.875 0.375 -0.375
v 0.875 0.6875 -1
v 0.875 0.6875 -0.375
v 1.3125 0.453125 -0.125
v 1.3125 0.765625 -0.125
v 0.625 0.125 -0.375
v 0.875 0.125 -0.375
v 1.375 0.71875 0.125
v 1.375 0.75 0.15625
v 1.3125 0.75 0.125
v 1.375 0.421875 0.125
v 1.375 0.421875 -0.125
v 1.375 0.6875 0.375
v 0.875 0.6875 0.375
v 1.375 1.125 0.375
v 1.375 0.125 -0.375
v 1.375 0.125 0.375
v 1.375 0.6875 -0.375
v 0.875 1.125 1
v -1 1 0
v 0.875 0.375 0.375
v 0.875 0.6875 1
v 0.75 0.375 1
v 1.375 0.796875 0.125
v 1.375 0.796875 -0.125
v 1.375 0.453125 -0.15625
v 1.375 0.765625 -0.15625
v 0.9408426284790039 0.4806845188140869 -0.3743753433227539
v 1.3416519165039062 0.7593119144439697 -0.3743753433227539
v 0.9680788516998291 0.7919952869415283 -0.3743753433227539
v 1.314415693283081 0.4480011463165283 -0.3743753433227539
v 0.875 0.125 0.375
v 1.375 0.125 0
v 1.375 0.125 1
v 1.375 1.125 -0.375
v 0.625 0.125 0.375
v 1.375 0.125 -1
v 1.3118749856948853 0.515625 -0.125
v 1.3118749856948853 0.515625 0.125
v 2 0 1
v 0.09375 1.71875 0.015625
v 0.28125 1.71875 0.015625
v 0.09375 1.75 0.015625
v 0.28125 1.6875 0.015625
v 0.28125 1.6875 -0.015625
v 0.09375 1.75 -0.015625
v 0.28125 1.71875 -0.015625
v 0.09375 1.71875 -0.015625
v 0.34375 1.65625 0.015625
v 0.625 1.5 0.015625
v 0.34375 1.6875 0.015625
v 0.59375 1.5 0.015625
v 0.59375 1.5 -0.015625
v 0.34375 1.65625 -0.015625
v 0.34375 1.6875 -0.015625
v 0.625 1.5 -0.015625
v 0.75 1.34375 -0.046875
v 0.75 1.34375 -0.015625
v 0.875 0.828125 -0.015625
v 0.875 0.828125 0.015625
v 1.34375 0.796875 -0.015625
v 1.34375 0.828125 -0.015625
v 1.34375 0.84375 -0.015625
v 1.34375 0.84375 0.015625
v 1.34375 0.828125 0.015625
v 1.34375 0.796875 0.015625
v 1.34375 1.125 0.015625
v 1.34375 0.9583333730697632 -0.015625
v 1.34375 0.9583333730697632 0.015625
v 1.34375 1.125 -0.015625
v 1.34375 0.4583333134651184 0.078125
v 1.375 0.2916666865348816 0.046875
v 1.375 0.4583333134651184 0.078125
v 1.34375 0.2916666865348816 0.046875
v 1.375 0.125 -0.015625
v 1.34375 0.125 -0.015625
v 1.34375 0.125 -0.046875
v 1.34375 0.2916666865348816 0.015625
v 1.34375 0.4583333134651184 0.046875
v 1.34375 0.625 0.015625
v 1.34375 0.625 -0.015625
v 1.34375 0.7916666269302368 0.015625
v 1.34375 0.7916666269302368 -0.015625
v 1.375 0.2916666865348816 0.015625
v 1.375 0.125 -0.046875
v 1.375 0.4583333134651184 0.046875
v 1.375 0.625 -0.015625
v 1.375 0.7916666269302368 -0.015625
v 1.375 0.9583333730697632 -0.015625
v 1.375 1.125 -0.015625
v 1.375 0.9583333730697632 0.015625
v 1.375 1.125 0.015625
v 1.375 0.7916666269302368 0.015625
v 1.375 0.625 0.015625
v 1.375 0.828125 -0.375
v 1.375 0.828125 0.375
vt 0.6328125 0.875
vt 0.62890625 0.875
vt 0.6328125 0.90625
vt 0.62890625 0.90625
vt 0.8542366027832031 0.91387939453125
vt 0.879302978515625 0.96075439453125
vt 0.879302978515625 0.91387939453125
vt 0.8541660308837891 0.9609375
vt 0.9375 0.6875
vt 1 0.6875
vt 1 0.75
vt 0.9375 0.75
vt 0.9375 0.9375
vt 0.9375 0.875
vt 0.9166660308837891 0.875
vt 0.9166660308837891 0.9375
vt 0.8125 1
vt 0.8125 0.9375
vt 0.7916660308837891 0.9375
vt 0.7916660308837891 1
vt 0.9166660308837891 1
vt 0.8958339691162109 0.9375
vt 0.8958339691162109 1
vt 0.9375 1
vt 0.6875 0.9375
vt 0.6796875 0.875
vt 0.6875 0.875
vt 0.6796875 0.9375
vt 0.8541660308837891 1
vt 0.8541660308837891 0.9375
vt 0.8333339691162109 0.9375
vt 0.8333339691162109 1
vt 0.8958339691162109 0.875
vt 0.734375 0.9375
vt 0.734375 1
vt 0.6875 1
vt 0.8541660308837891 0.87481689453125
vt 0.854095458984375 0.9375
vt 0.8958339691162109 0.93731689453125
vt 0.8958339691162109 0.87481689453125
vt 0.8541660308837891 0.875
vt 0.8333339691162109 0.875
vt 0.8125 0.875
vt 0.7916660308837891 0.875
vt 0.66796875 1
vt 0.66796875 0.9375
vt 0.734375 0.875
vt 0.6796875 1
vt 0.63671875 1
vt 0.63671875 0.9375
vt 0.6484375 0.9375
vt 0.6484375 1
vt 0.10937494784593582 0.6875
vt 0.12499994784593582 0.6875000596046448
vt 0.109375 0.66796875
vt 0.125 0.6679688096046448
vt 0.66796875 0.92578125
vt 0.6484375 0.92578125
vt 0.62890625 1
vt 0.6328125 0.96875
vt 0.6328125 1
vt 0.62890625 0.96875
vt 1 1
vt 1 0.9375
vt 1 0.875
vt 0.8541660308837891 0.93731689453125
vt 0.854095458984375 1
vt 0.8958339691162109 0.99981689453125
vt 0.9166660308837891 0.9609375
vt 0.8958339691162109 0.9609375
vt 0.9152927398681641 0.94549560546875
vt 0.95703125 0.9453125
vt 0.95703125 0.9140625
vt 0.8540935516357422 0.91424560546875
vt 0.8957614898681641 0.94549560546875
vt 0.8957614898681641 0.91424560546875
vt 0.8540229797363281 0.9456787109375
vt 0.8958320617675781 0.91015625
vt 0.9375 0.96484375
vt 0.9375 0.91015625
vt 0.8957614898681641 0.96502685546875
vt 0.8541660308837891 0.96075439453125
vt 0.8958339691162109 0.96075439453125
vt 0.9166660308837891 0.9140625
vt 0.8958339691162109 0.9140625
vt 0.939453125 0.9609375
vt 0.9186191558837891 0.9609375
vt 0.33203125 0.21875
vt 0.5625 0.4375
vt 0.33203125 0.4375
vt 0.5625 0.21875
vt 0.8958339691162109 0.91387939453125
vt 0.854095458984375 0.9140625
vt 0.8958320617675781 0.9140625
vt 0.9375 0.9453125
vt 0.9375 0.9140625
vt 0.8958320617675781 0.9296875
vt 0.9375 0.9609375
vt 0.9375 0.9296875
vt 0.8957614898681641 0.96112060546875
vt 0.953125 0.875
vt 0.953125 0.9375
vt 0.8560466766357422 0.91033935546875
vt 0.8957614898681641 0.91033935546875
vt 0.8559761047363281 0.9652099609375
vt 0.953125 1
vt 0.61328125 0.3125
vt 0.76171875 0.453125
vt 0.61328125 0.453125
vt 0.76171875 0.3125
vt 0.939453125 0.9140625
vt 0.9186191558837891 0.9140625
vt 0.8540935516357422 0.92987060546875
vt 0.8957614898681641 0.92987060546875
vt 0.8540229797363281 0.9613037109375
vt 0.62890625 0.9010416865348816
vt 0.6328125 0.9010416865348816
vt 0.62890625 0.9791666865348816
vt 0.6328125 0.9739583134651184
vt 0.6328125 0.9791666865348816
vt 0.62890625 0.9739583134651184
vt 0.6328125 0.8802083134651184
vt 0.62890625 0.8802083134651184
vt 0.6328125 0.8854166865348816
vt 0.62890625 0.8854166865348816
vt 0.6328125 0.890625
vt 0.62890625 0.890625
vt 0.6328125 0.8958333134651184
vt 0.62890625 0.8958333134651184
vt 0.6328125 0.9947916865348816
vt 0.62890625 0.9947916865348816
vt 0.6328125 0.9895833134651184
vt 0.62890625 0.9895833134651184
vt 0.6328125 0.984375
vt 0.62890625 0.984375
vt 0.8501873016357422 0.91033935546875
vt 0.8501167297363281 0.9652099609375
vn 0.99420705 0.10748184 0
vn -1 0 0
vn 0 1 0
vn 0.70710678 0.70710678 0
vn 0.37139068 -0.92847669 0
vn 0.92847669 0.37139068 0
vn 0 -1 0
vn 1 0 0
vn 0.89442719 -0.4472136 0
vn 0.70710678 -0.70710678 0
vn -0.93632918 -0.35112344 0
vn -0.89407801 -0.447039 0.02793994
vn -0.6642207 -0.74724829 0.0207569
vn -0.70710678 -0.70710678 0
vn -0.37139068 -0.92847669 0
vn -0.70693421 -0.70693421 -0.02209169
vn -0.66436384 -0.74740932 0
vn -0.4472136 0 0.89442719
vn 0 0 1
vn 0 0 -1
vn -0.91287093 0.36514837 0.18257419
vn -0.33333333 -0.66666667 0.66666667
vn -0.4472136 -0.89442719 0
vn -0.89442719 -0.4472136 0
vn -0.91287093 0.36514837 -0.18257419
vn -0.33333333 0.66666667 0.66666667
vn -0.4472136 0.89442719 0
vn -0.70014004 0.70014004 0.14002801
vn -0.93592861 -0.35097323 -0.02924777
vn -0.4472136 0 -0.89442719
vn -0.33333333 0.66666667 -0.66666667
vn -0.33333333 -0.66666667 -0.66666667
vn -0.99999687 0.00250005 0
vn -0.70014004 0.70014004 -0.14002801
vn -0.16439899 -0.98639392 0
vn -0.52999894 -0.8479983 0
vn -0.10976426 0.10976426 -0.98787834
vn 0 0.19611614 -0.98058068
vn 0 -0.24253563 0.9701425
vn 0.09901475 -0.09901475 0.99014754
vn 0.04866483 -0.04866483 -0.99762892
vn -0.98562225 -0.16896382 0
vn -0.04866483 0.04866483 0.99762892
vn 0.09334071 -0.99563423 0
vn 0 -0.18428858 0.98287218
vn 0 -0.3511234 0.93632919
vn 0 0.3511234 -0.93632919
vn 0 0.18428858 -0.98287218
vn 0 -0.3511234 -0.93632919
vn 0 0.3511234 0.93632919
g Object 63137
usemtl 0
f 1/1/1 2/2/1 3/3/1
f 2/2/1 4/4/1 3/3/1
f 5/5/2 6/6/2 7/7/2
f 5/5/2 8/8/2 6/6/2
f 9/9/3 10/10/3 11/11/3
f 9/9/3 11/11/3 12/12/3
f 13/9/3 9/10/3 12/11/3
f 13/9/3 12/11/3 14/12/3
f 15/9/3 16/10/3 9/11/3
f 15/9/3 9/11/3 13/12/3
f 16/9/3 17/10/3 10/11/3
f 16/9/3 10/11/3 9/12/3
f 18/13/4 19/14/4 20/15/4
f 18/13/4 20/15/4 21/16/4
f 22/17/5 23/18/5 24/19/5
f 22/17/5 24/19/5 25/20/5
f 26/21/6 21/16/6 27/22/6
f 26/21/6 27/22/6 28/23/6
f 29/24/4 18/13/4 21/16/4
f 29/24/4 21/16/4 26/21/4
f 30/25/7 31/26/7 32/27/7
f 33/27/8 30/25/8 34/28/8
f 35/25/7 36/26/7 37/27/7
f 33/25/7 38/26/7 30/27/7
f 39/29/9 40/30/9 41/31/9
f 39/29/9 41/31/9 42/32/9
f 43/2/7 44/1/7 45/3/7
f 43/2/7 45/3/7 46/4/7
f 21/16/6 20/15/6 47/33/6
f 21/16/6 47/33/6 27/22/6
f 43/4/8 46/2/8 48/1/8
f 43/4/8 48/1/8 49/3/8
f 24/34/7 50/35/7 51/36/7
f 24/34/7 51/36/7 52/25/7
f 53/37/8 40/38/8 27/39/8
f 53/37/8 27/39/8 47/40/8
f 40/41/9 53/30/9 54/31/9
f 40/41/9 54/31/9 41/42/9
f 45/4/2 44/2/2 55/1/2
f 45/4/2 55/1/2 56/3/2
f 42/32/10 41/31/10 23/18/10
f 38/27/2 57/25/2 58/28/2
f 59/29/11 60/30/11 61/31/11
f 59/29/12 61/31/12 62/32/12
f 62/32/13 61/31/13 63/18/13
f 62/32/14 63/18/14 64/17/14
f 64/18/15 63/43/15 52/44/15
f 64/18/15 52/44/15 51/19/15
f 65/25/7 66/26/7 35/27/7
f 66/27/2 67/28/2 68/26/2
f 10/9/3 69/11/3 11/12/3
f 10/9/3 70/10/3 69/11/3
f 35/27/8 71/28/8 72/26/8
f 36/27/2 68/28/2 73/26/2
f 30/27/8 32/25/8 74/28/8
f 75/45/8 76/46/8 77/28/8
f 61/31/16 78/42/16 79/43/16
f 61/31/17 79/43/17 63/18/17
f 63/17/15 79/18/15 80/19/15
f 63/17/15 80/19/15 52/20/15
f 25/34/7 24/47/7 52/27/7
f 25/34/7 52/27/7 80/25/7
f 42/32/10 41/31/10 23/18/10
f 42/32/10 23/18/10 22/17/10
f 38/27/2 57/25/2 58/28/2
f 38/27/2 58/28/2 81/26/2
f 33/27/8 30/25/8 34/28/8
f 33/27/8 34/28/8 82/26/8
f 31/27/2 38/25/2 81/28/2
f 31/27/2 81/28/2 83/26/2
f 30/27/8 32/25/8 74/28/8
f 30/27/8 74/28/8 34/26/8
f 30/25/7 38/28/7 31/26/7
f 30/25/7 31/26/7 32/27/7
f 33/25/7 57/28/7 38/26/7
f 33/25/7 38/26/7 30/27/7
f 35/25/7 66/28/7 36/26/7
f 35/25/7 36/26/7 37/27/7
f 65/25/7 84/28/7 66/26/7
f 65/25/7 66/26/7 35/27/7
f 66/27/2 84/25/2 67/28/2
f 66/27/2 67/28/2 68/26/2
f 36/27/2 66/25/2 68/28/2
f 36/27/2 68/28/2 73/26/2
f 35/27/8 37/25/8 71/28/8
f 35/27/8 71/28/8 72/26/8
f 65/27/8 35/25/8 72/28/8
f 65/27/8 72/28/8 85/26/8
f 75/45/8 76/46/8 77/28/8
f 75/45/8 77/28/8 86/48/8
f 87/49/2 88/50/2 89/51/2
f 87/49/2 89/51/2 90/52/2
f 88/52/7 87/51/7 76/46/7
f 88/52/7 76/46/7 75/45/7
f 17/9/3 70/11/3 10/12/3
f 91/53/18 92/54/18 93/55/18
f 92/54/18 94/56/18 93/55/18
f 88/52/7 87/51/7 76/46/7
f 88/52/7 76/46/7 75/45/7
f 89/46/19 88/57/19 75/58/19
f 89/46/19 75/58/19 86/51/19
f 77/51/20 76/58/20 87/57/20
f 77/51/20 87/57/20 90/46/20
f 95/59/8 96/60/8 97/61/8
f 95/59/8 98/62/8 96/60/8
f 99/59/2 100/60/2 101/61/2
f 99/59/2 102/62/2 100/60/2
f 103/63/3 19/24/3 18/13/3
f 103/63/3 18/13/3 104/64/3
f 41/31/10 54/42/10 105/43/10
f 41/31/10 105/43/10 23/18/10
f 39/29/9 40/30/9 41/31/9
f 39/29/9 41/31/9 42/32/9
f 104/64/3 18/13/3 29/14/3
f 104/64/3 29/14/3 106/65/3
f 40/66/8 39/67/8 28/68/8
f 40/66/8 28/68/8 27/39/8
f 23/18/5 105/43/5 50/44/5
f 23/18/5 50/44/5 24/19/5
f 18/13/4 19/14/4 20/15/4
f 18/13/4 20/15/4 21/16/4
f 22/17/5 23/18/5 24/19/5
f 22/17/5 24/19/5 25/20/5
f 26/21/6 21/16/6 27/22/6
f 26/21/6 27/22/6 28/23/6
f 29/24/4 18/13/4 21/16/4
f 29/24/4 21/16/4 26/21/4
f 33/25/7 57/28/7 38/26/7
f 30/25/7 38/28/7 31/26/7
f 65/25/7 84/28/7 66/26/7
f 35/25/7 66/28/7 36/26/7
f 104/64/3 18/13/3 29/14/3
f 104/64/3 29/14/3 106/65/3
f 43/2/7 44/1/7 45/3/7
f 43/2/7 45/3/7 46/4/7
f 21/16/6 20/15/6 47/33/6
f 21/16/6 47/33/6 27/22/6
f 43/4/8 46/2/8 48/1/8
f 43/4/8 48/1/8 49/3/8
f 24/34/7 50/35/7 51/36/7
f 24/34/7 51/36/7 52/25/7
f 53/37/8 40/38/8 27/39/8
f 53/37/8 27/39/8 47/40/8
f 40/30/9 53/41/9 54/42/9
f 40/30/9 54/42/9 41/31/9
f 45/4/2 44/2/2 55/1/2
f 45/4/2 55/1/2 56/3/2
f 107/21/21 108/69/21 109/23/21
f 108/69/2 110/70/2 109/23/2
f 38/27/2 58/28/2 81/26/2
f 88/52/7 87/51/7 76/46/7
f 88/52/7 76/46/7 75/45/7
f 62/32/13 61/31/13 63/18/13
f 62/32/14 63/18/14 64/17/14
f 64/18/15 63/43/15 52/44/15
f 64/18/15 52/44/15 51/19/15
f 66/27/2 84/25/2 67/28/2
f 36/27/2 66/25/2 68/28/2
f 111/55/2 92/54/2 112/53/2
f 111/55/2 94/56/2 92/54/2
f 108/71/19 113/72/19 114/73/19
f 65/27/8 35/25/8 72/28/8
f 35/27/8 37/25/8 71/28/8
f 65/27/8 72/28/8 85/26/8
f 75/45/8 77/28/8 86/48/8
f 61/31/16 78/42/16 79/43/16
f 61/31/17 79/43/17 63/18/17
f 63/17/15 79/18/15 80/19/15
f 63/17/15 80/19/15 52/20/15
f 25/34/7 24/47/7 52/27/7
f 25/34/7 52/27/7 80/25/7
f 42/32/10 41/31/10 23/18/10
f 42/32/10 23/18/10 22/17/10
f 38/27/2 57/25/2 58/28/2
f 38/27/2 58/28/2 81/26/2
f 33/27/8 30/25/8 34/28/8
f 33/27/8 34/28/8 82/26/8
f 31/27/2 38/25/2 81/28/2
f 31/27/2 81/28/2 83/26/2
f 30/27/8 32/25/8 74/28/8
f 30/27/8 74/28/8 34/26/8
f 30/25/7 38/28/7 31/26/7
f 30/25/7 31/26/7 32/27/7
f 33/25/7 57/28/7 38/26/7
f 33/25/7 38/26/7 30/27/7
f 35/25/7 66/28/7 36/26/7
f 35/25/7 36/26/7 37/27/7
f 65/25/7 84/28/7 66/26/7
f 65/25/7 66/26/7 35/27/7
f 66/27/2 84/25/2 67/28/2
f 66/27/2 67/28/2 68/26/2
f 36/27/2 66/25/2 68/28/2
f 36/27/2 68/28/2 73/26/2
f 35/27/8 37/25/8 71/28/8
f 35/27/8 71/28/8 72/26/8
f 65/27/8 35/25/8 72/28/8
f 65/27/8 72/28/8 85/26/8
f 75/45/8 76/46/8 77/28/8
f 75/45/8 77/28/8 86/48/8
f 87/49/2 88/50/2 89/51/2
f 87/49/2 89/51/2 90/52/2
f 88/52/7 87/51/7 76/46/7
f 88/52/7 76/46/7 75/45/7
f 115/55/22 116/56/22 117/54/22
f 118/53/23 94/54/23 119/55/23
f 94/54/23 111/56/23 119/55/23
f 88/52/7 87/51/7 76/46/7
f 88/52/7 76/46/7 75/45/7
f 89/46/19 88/57/19 75/58/19
f 89/46/19 75/58/19 86/51/19
f 77/51/20 76/58/20 87/57/20
f 77/51/20 87/57/20 90/46/20
f 5/74/20 120/75/20 121/76/20
f 5/74/20 122/77/20 120/75/20
f 120/78/2 123/79/2 124/80/2
f 120/78/2 125/81/2 123/79/2
f 103/63/3 19/24/3 18/13/3
f 103/63/3 18/13/3 104/64/3
f 41/31/10 54/42/10 105/43/10
f 41/31/10 105/43/10 23/18/10
f 39/29/9 40/30/9 41/31/9
f 39/29/9 41/31/9 42/32/9
f 104/64/3 18/13/3 29/14/3
f 104/64/3 29/14/3 106/65/3
f 40/66/8 39/67/8 28/68/8
f 40/66/8 28/68/8 27/39/8
f 23/18/5 105/43/5 50/44/5
f 23/18/5 50/44/5 24/19/5
f 18/13/4 19/14/4 20/15/4
f 18/13/4 20/15/4 21/16/4
f 22/17/5 23/18/5 24/19/5
f 22/17/5 24/19/5 25/20/5
f 26/21/6 21/16/6 27/22/6
f 26/21/6 27/22/6 28/23/6
f 29/24/4 18/13/4 21/16/4
f 29/24/4 21/16/4 26/21/4
f 31/27/2 81/28/2 83/26/2
f 33/27/8 34/28/8 82/26/8
f 31/27/2 38/25/2 81/28/2
f 60/30/24 126/41/24 78/42/24
f 40/66/8 39/67/8 28/68/8
f 127/66/6 28/68/6 27/39/6
f 43/2/7 44/1/7 45/3/7
f 43/2/7 45/3/7 46/4/7
f 21/16/6 20/15/6 47/33/6
f 21/16/6 47/33/6 27/22/6
f 43/4/8 46/2/8 48/1/8
f 43/4/8 48/1/8 49/3/8
f 24/34/7 50/35/7 51/36/7
f 24/34/7 51/36/7 52/25/7
f 53/37/8 40/38/8 27/39/8
f 53/37/8 27/39/8 47/40/8
f 40/41/9 53/30/9 54/31/9
f 40/41/9 54/31/9 41/42/9
f 45/4/2 44/2/2 55/1/2
f 45/4/2 55/1/2 56/3/2
f 8/82/2 109/68/2 110/83/2
f 8/82/2 59/67/2 109/68/2
f 128/84/2 129/33/2 121/85/2
f 128/84/25 130/15/25 129/33/25
f 92/54/26 91/56/26 131/55/26
f 132/53/27 112/54/27 131/55/27
f 112/54/27 92/56/27 131/55/27
f 62/32/13 61/31/13 63/18/13
f 62/32/14 63/18/14 64/17/14
f 64/18/15 63/43/15 52/44/15
f 64/18/15 52/44/15 51/19/15
f 103/24/28 113/86/28 107/21/28
f 113/86/28 108/87/28 107/21/28
f 60/30/29 78/42/29 61/31/29
f 133/55/30 112/54/30 134/53/30
f 133/55/30 111/56/30 112/54/30
f 135/88/19 136/89/19 137/90/19
f 135/88/19 138/91/19 136/89/19
f 126/37/2 121/92/2 129/40/2
f 126/37/2 5/93/2 121/92/2
f 42/32/10 23/18/10 22/17/10
f 87/49/2 88/50/2 89/51/2
f 87/49/2 89/51/2 90/52/2
f 61/31/16 78/42/16 79/43/16
f 61/31/17 79/43/17 63/18/17
f 63/17/15 79/18/15 80/19/15
f 63/17/15 80/19/15 52/20/15
f 25/34/7 24/47/7 52/27/7
f 25/34/7 52/27/7 80/25/7
f 42/32/10 41/31/10 23/18/10
f 42/32/10 23/18/10 22/17/10
f 38/27/2 57/25/2 58/28/2
f 38/27/2 58/28/2 81/26/2
f 33/27/8 30/25/8 34/28/8
f 33/27/8 34/28/8 82/26/8
f 31/27/2 38/25/2 81/28/2
f 31/27/2 81/28/2 83/26/2
f 30/27/8 32/25/8 74/28/8
f 30/27/8 74/28/8 34/26/8
f 30/25/7 38/28/7 31/26/7
f 30/25/7 31/26/7 32/27/7
f 33/25/7 57/28/7 38/26/7
f 33/25/7 38/26/7 30/27/7
f 35/25/7 66/28/7 36/26/7
f 35/25/7 36/26/7 37/27/7
f 65/25/7 84/28/7 66/26/7
f 65/25/7 66/26/7 35/27/7
f 66/27/2 84/25/2 67/28/2
f 66/27/2 67/28/2 68/26/2
f 36/27/2 66/25/2 68/28/2
f 36/27/2 68/28/2 73/26/2
f 35/27/8 37/25/8 71/28/8
f 35/27/8 71/28/8 72/26/8
f 65/27/8 35/25/8 72/28/8
f 65/27/8 72/28/8 85/26/8
f 75/45/8 76/46/8 77/28/8
f 75/45/8 77/28/8 86/48/8
f 87/49/2 88/50/2 89/51/2
f 87/49/2 89/51/2 90/52/2
f 88/52/7 87/51/7 76/46/7
f 88/52/7 76/46/7 75/45/7
f 132/55/31 134/56/31 112/54/31
f 111/54/32 133/56/32 119/55/32
f 88/52/7 87/51/7 76/46/7
f 88/52/7 76/46/7 75/45/7
f 89/46/19 88/57/19 75/58/19
f 89/46/19 75/58/19 86/51/19
f 77/51/20 76/58/20 87/57/20
f 77/51/20 87/57/20 90/46/20
f 121/94/20 124/95/20 139/96/20
f 121/94/20 120/75/20 124/95/20
f 125/97/19 114/98/19 123/99/19
f 125/97/19 110/100/19 114/98/19
f 103/63/3 19/24/3 18/13/3
f 103/63/3 18/13/3 104/64/3
f 41/31/10 54/42/10 105/43/10
f 41/31/10 105/43/10 23/18/10
f 39/29/9 40/30/9 41/31/9
f 39/29/9 41/31/9 42/32/9
f 25/34/7 52/27/7 80/25/7
f 140/64/3 106/101/3 141/65/3
f 140/64/3 104/102/3 106/101/3
f 40/66/8 39/67/8 28/68/8
f 40/66/8 28/68/8 27/39/8
f 23/18/5 105/43/5 50/44/5
f 23/18/5 50/44/5 24/19/5
f 18/13/4 19/14/4 20/15/4
f 18/13/4 20/15/4 21/16/4
f 22/17/5 23/18/5 24/19/5
f 22/17/5 24/19/5 25/20/5
f 26/21/6 21/16/6 27/22/6
f 26/21/6 27/22/6 28/23/6
f 29/24/4 18/13/4 21/16/4
f 29/24/4 21/16/4 26/21/4
f 88/52/7 87/51/7 76/46/7
f 88/52/7 76/46/7 75/45/7
f 89/46/19 88/57/19 75/58/19
f 89/46/19 75/58/19 86/51/19
f 23/18/5 105/43/5 50/44/5
f 23/18/5 50/44/5 24/19/5
f 43/2/7 44/1/7 45/3/7
f 43/2/7 45/3/7 46/4/7
f 21/16/6 20/15/6 47/33/6
f 21/16/6 47/33/6 27/22/6
f 43/4/8 46/2/8 48/1/8
f 43/4/8 48/1/8 49/3/8
f 24/34/7 50/35/7 51/36/7
f 24/34/7 51/36/7 52/25/7
f 53/37/8 40/38/8 27/39/8
f 53/37/8 27/39/8 47/40/8
f 40/30/9 53/41/9 54/42/9
f 40/30/9 54/42/9 41/31/9
f 45/4/2 44/2/2 55/1/2
f 45/4/2 55/1/2 56/3/2
f 77/51/20 76/58/20 87/57/20
f 77/51/20 87/57/20 90/46/20
f 122/103/2 125/81/2 120/104/2
f 122/103/2 142/105/2 125/81/2
f 128/71/20 139/72/20 143/73/20
f 62/32/13 61/31/13 63/18/13
f 62/32/14 63/18/14 64/17/14
f 64/18/15 63/43/15 52/44/15
f 64/18/15 52/44/15 51/19/15
f 25/34/7 24/47/7 52/27/7
f 144/63/3 104/102/3 140/64/3
f 144/63/3 103/106/3 104/102/3
f 95/3/7 99/2/7 98/1/7
f 95/3/7 102/4/7 99/2/7
f 145/107/33 92/108/33 112/109/33
f 145/107/33 146/110/33 92/108/33
f 41/31/10 54/42/10 105/43/10
f 41/31/10 105/43/10 23/18/10
f 30/27/8 74/28/8 34/26/8
f 143/111/34 130/15/34 128/112/34
f 143/111/34 106/14/34 130/15/34
f 61/31/16 78/42/16 79/43/16
f 61/31/17 79/43/17 63/18/17
f 63/17/15 79/18/15 80/19/15
f 63/17/15 80/19/15 52/20/15
f 142/113/19 110/100/19 125/114/19
f 142/113/19 8/115/19 110/100/19
f 17/9/3 147/10/3 70/11/3
f 148/59/19 149/60/19 150/61/19
f 148/59/19 151/62/19 149/60/19
f 152/59/20 153/60/20 154/61/20
f 152/59/20 155/62/20 153/60/20
f 152/3/35 148/2/35 155/1/35
f 152/3/35 151/4/35 148/2/35
f 156/59/19 157/60/19 158/61/19
f 156/59/19 159/62/19 157/60/19
f 160/3/36 156/2/36 161/1/36
f 160/3/36 159/4/36 156/2/36
f 160/59/20 162/60/20 163/61/20
f 160/59/20 161/62/20 162/60/20
f 164/59/37 163/60/37 1/61/37
f 164/59/38 160/62/38 163/60/38
f 164/3/14 159/2/14 160/1/14
f 164/3/14 165/4/14 159/2/14
f 159/59/39 2/60/39 157/61/39
f 159/59/40 165/62/40 2/60/40
f 3/59/41 1/60/41 166/61/41
f 3/59/41 164/62/41 1/60/41
f 3/3/42 165/2/42 164/1/42
f 3/3/42 4/4/42 165/2/42
f 165/59/43 167/60/43 2/61/43
f 165/59/43 4/62/43 167/60/43
f 168/59/20 166/60/20 169/61/20
f 168/59/20 3/62/20 166/60/20
f 170/3/44 4/2/44 3/1/44
f 170/3/44 171/4/44 4/2/44
f 4/59/19 172/60/19 167/61/19
f 4/59/19 173/62/19 172/60/19
f 174/3/2 175/116/2 176/117/2
f 174/3/2 177/4/2 175/116/2
f 178/118/45 179/119/45 180/120/45
f 178/118/45 181/121/45 179/119/45
f 181/121/46 182/60/46 179/119/46
f 181/121/46 183/62/46 182/60/46
f 181/122/2 184/2/2 183/1/2
f 181/122/2 185/123/2 184/2/2
f 178/124/2 185/123/2 181/122/2
f 178/124/2 186/125/2 185/123/2
f 187/126/2 186/125/2 178/124/2
f 187/126/2 188/127/2 186/125/2
f 189/128/2 188/127/2 187/126/2
f 189/128/2 190/129/2 188/127/2
f 176/117/2 190/129/2 189/128/2
f 176/117/2 175/116/2 190/129/2
f 184/59/47 191/130/47 192/61/47
f 184/59/47 185/131/47 191/130/47
f 185/131/48 193/132/48 191/130/48
f 185/131/48 186/133/48 193/132/48
f 186/133/49 194/134/49 193/132/49
f 186/133/49 188/135/49 194/134/49
f 188/135/20 195/120/20 194/134/20
f 188/135/20 190/118/20 195/120/20
f 190/118/20 196/119/20 195/120/20
f 190/118/20 175/121/20 196/119/20
f 175/121/20 197/60/20 196/119/20
f 175/121/20 177/62/20 197/60/20
f 174/59/19 198/130/19 199/61/19
f 174/59/19 176/131/19 198/130/19
f 176/131/19 200/132/19 198/130/19
f 176/131/19 189/133/19 200/132/19
f 189/133/19 201/134/19 200/132/19
f 189/133/19 187/135/19 201/134/19
f 187/135/50 180/120/50 201/134/50
f 187/135/50 178/118/50 180/120/50
f 7/136/7 202/81/7 203/104/7
f 7/136/7 6/137/7 202/81/7
f 168/3/7 4/2/7 3/1/7
f 168/3/7 173/4/7 4/2/7
