o Default
v -0.3125 1.125 0.03125
v 0.3125 1.125 0.03125
v -0.3125 0.125 0.03125
v 0.3125 0.125 0.03125
v 0.3125 1.125 0.09375
v -0.3125 1.125 0.09375
v 0.3125 0.125 0.09375
v -0.3125 0.125 0.09375
v 0.25 0.5 0.03125
v 0.25 0.546875 -0.03125
v 0.25 0.5625 0.03125
v 0.25 0.515625 -0.03125
v 0.1875 0.5 0.03125
v 0.203125 0.515625 -0.03125
v 0.1875 0.5625 0.03125
v 0.203125 0.546875 -0.03125
v 0.078125 0.546875 -0.03125
v 0.078125 0.515625 -0.03125
v 0.078125 0.546875 0
v 0.078125 0.515625 0
v 0.203125 0.546875 0
v 0.203125 0.515625 0
v 0.15625 0.703125 0.030625000596046448
v -0.15625 1.015625 0.030625000596046448
v 0.15625 1.015625 0.030625000596046448
v -0.15625 0.703125 0.030625000596046448
v 0.125 0.625 0.030625000596046448
v -0.125 0.703125 0.030625000596046448
v 0.125 0.703125 0.030625000596046448
v -0.125 0.625 0.030625000596046448
v -0.125 0.625 0.10875000059604645
v 0.125 0.703125 0.10875000059604645
v -0.125 0.703125 0.10875000059604645
v 0.125 0.625 0.10875000059604645
v -0.15625 0.703125 0.10875000059604645
v 0.15625 1.015625 0.10875000059604645
v -0.15625 1.015625 0.10875000059604645
v 0.15625 0.703125 0.10875000059604645
vt 0.8826727867126465 0.24984461069107056
vt 0.8123602867126465 0.24984461069107056
vt 0.8828125 0.1328125
vt 0.8125 0.1328125
vt 0.81640625 0.25
vt 0.8125 0.25
vt 0.81640625 0.1328125
vt 0.8828125 0.171875
vt 0.87890625 0.171875
vt 0.87890625 0.1328125
vt 0.890625 0.1328125
vt 0.8984375 0.140625
vt 0.890625 0.140625
vt 0.8984375 0.1328125
vt 0.8984375 0.14453125
vt 0.900390625 0.146484375
vt 0.8984375 0.146484375
vt 0.900390625 0.14453125
vt 0.90234375 0.140625
vt 0.91015625 0.1425781100988388
vt 0.90234375 0.142578125
vt 0.91015625 0.1406249850988388
vt 0.8984375 0.1796875
vt 0.90625 0.1816406100988388
vt 0.8984375 0.181640625
vt 0.90625 0.1796874850988388
vt 0.90625 0.14453125
vt 0.9140625 0.1464843600988388
vt 0.90625 0.146484375
vt 0.9140625 0.1445312350988388
vt 0.33203125 0.44921875
vt 0.5625 0.68359375
vt 0.33203125 0.68359375
vt 0.5625 0.44921875
vt 0.33203125 0.6875
vt 0.50390625 0.76953125
vt 0.33203125 0.76953125
vt 0.50390625 0.6875
vt 0.33203125 0.7734375
vt 0.50390625 0.85546875
vt 0.33203125 0.85546875
vt 0.50390625 0.7734375
vt 0.08984375 0.06640625
vt 0.3203125 0.30078125
vt 0.08984375 0.30078125
vt 0.3203125 0.06640625
vn 0 0 -1
vn 0 0 1
vn 1 0 0
vn -1 0 0
vn 0 1 0
vn 0 -1 0
vn 0 -0.9701425 -0.24253563
vn -0.9701425 0 -0.24253563
vn 0 0.9701425 -0.24253563
g Tunnel_Door
usemtl 0
f 1/1/1 2/2/1 3/3/1
f 2/2/1 4/4/1 3/3/1
f 5/1/2 6/2/2 7/3/2
f 6/2/2 8/4/2 7/3/2
f 2/5/3 5/6/3 4/7/3
f 5/6/3 7/4/3 4/7/3
f 6/5/4 1/6/4 8/7/4
f 1/6/4 3/4/4 8/7/4
f 5/8/5 2/9/5 6/3/5
f 2/9/5 1/10/5 6/3/5
f 4/8/6 7/9/6 3/3/6
f 7/9/6 8/10/6 3/3/6
f 9/11/3 10/12/3 11/13/3
f 9/11/3 12/14/3 10/12/3
f 13/11/7 12/12/7 9/13/7
f 13/11/7 14/14/7 12/12/7
f 15/11/8 14/12/8 13/13/8
f 15/11/8 16/14/8 14/12/8
f 11/11/9 16/12/9 15/13/9
f 11/11/9 10/14/9 16/12/9
f 12/15/1 16/16/1 10/17/1
f 12/15/1 14/18/1 16/16/1
f 14/19/1 17/20/1 16/21/1
f 14/19/1 18/22/1 17/20/1
f 18/19/4 19/20/4 17/21/4
f 18/19/4 20/22/4 19/20/4
f 20/19/2 21/20/2 19/21/2
f 20/19/2 22/22/2 21/20/2
f 16/23/5 19/24/5 21/25/5
f 16/23/5 17/26/5 19/24/5
f 18/27/6 22/28/6 20/29/6
f 18/27/6 14/30/6 22/28/6
f 23/31/1 24/32/1 25/33/1
f 23/31/1 26/34/1 24/32/1
f 27/35/1 28/36/1 29/37/1
f 27/35/1 30/38/1 28/36/1
f 31/39/2 32/40/2 33/41/2
f 31/39/2 34/42/2 32/40/2
f 35/43/2 36/44/2 37/45/2
f 35/43/2 38/46/2 36/44/2
