o Default
v -0.28125 3.625 1
v -0.28125 3.71875 0
v -0.28125 3.71875 1
v -0.28125 3.625 0
v -0.28125 3.71875 -1
v -0.28125 3.625 -1
v 0.34375 3.625 1
v 0.34375 3.6875 0
v 0.34375 3.6875 1
v 0.34375 3.625 0
v 0.34375 3.6875 -1
v 0.34375 3.625 -1
v 0.28125 3.625 1
v 0.28125 3.625 0
v 0.28125 3.625 -1
v -0.34375 3.625 0
v -0.34375 3.625 1
v -0.34375 3.625 -1
v 0.28125 3.71875 1
v 0.28125 3.71875 0
v 0.28125 3.71875 -1
v -0.34375 3.6875 0
v -0.34375 3.6875 -1
v -0.34375 3.6875 1
v -0.28125 1.625 0.9375
v -0.28125 2.625 1
v -0.28125 1.625 1
v -0.28125 2.625 0.9375
v -0.28125 3.625 1.03125
v -0.28125 3.625 0.9375
v 0.34375 1.625 0.9375
v 0.34375 2.625 1
v 0.34375 1.625 1
v 0.34375 2.625 0.9375
v 0.34375 3.625 0.9375
v 0.28125 1.625 0.9375
v 0.28125 2.625 0.9375
v 0.28125 3.625 0.9375
v -0.34375 2.625 0.9375
v -0.34375 1.625 0.9375
v -0.34375 3.625 0.9375
v 0.28125 1.625 1
v 0.28125 2.625 1
v -0.34375 2.625 1
v -0.34375 1.625 1
v -0.875 2 -1
v -0.75 2.375 -1
v -0.875 2.375 -1
v -0.75 2 -1
v -0.75 2.125 -1
v -0.5 2.125 -1
v -0.875 2.6875 -1
v -0.5 2 -1
v -0.1875 2 -1
v 0.875 2.6875 -1
v 0.75 2.375 -1
v 0.875 2.375 -1
v 0.875 2 -1
v 0.75 2 -1
v 0.5 2.125 -1
v 0.75 2.125 -1
v 0.5 2 -1
v 0.1875 2 -1
v -0.875 1.375 1
v -0.75 1.375 1
v -0.875 1.125 1
v -0.75 1.625 1
v -0.5 1.625 1
v -0.875 1.75 1
v -0.75 1.75 1
v -0.5 1.75 1
v -0.1875 1.75 1
v 0.875 1.75 1
v -0.875 2.75 1
v 0.875 2.75 1
v -0.875 3.75 1
v 0.875 3.75 1
v 0.75 1.625 1
v 0.5 1.625 1
v 0.75 1.75 1
v 0.5 1.75 1
v 0.875 1.375 1
v 0.75 1.375 1
v 0.1875 1.75 1
v 0.875 1.125 1
v 0.875 2.125 -1
v -0.875 2.125 -0.75
v 0.875 2.125 -0.75
v -0.875 2.125 -1
v 0.875 1.875 -0.75
v -0.875 1.875 -0.5
v 0.875 1.875 -0.5
v -0.875 1.875 -0.75
v 0.875 1.625 -0.5
v -0.875 1.625 -0.25
v 0.875 1.625 -0.25
v -0.875 1.625 -0.5
v 0.875 1.375 -0.25
v -0.875 1.375 0
v 0.875 1.375 0
v -0.875 1.375 -0.25
v 0.875 1.125 0
v -0.875 1.125 0.25
v 0.875 1.125 0.25
v -0.875 1.125 0
v 0.875 0.875 0.25
v -0.875 0.875 0.5
v 0.875 0.875 0.5
v -0.875 0.875 0.25
v 0.875 0.625 0.5
v -0.875 0.625 0.75
v 0.875 0.625 0.75
v -0.875 0.625 0.5
v -0.875 0.375 0.75
v 0.875 0.375 0.75
v 0.875 0.375 1
v -0.875 0.125 1
v 0.875 0.125 1
v -0.875 0.375 1
v -0.875 0.125 -1
v 0.875 0.125 -1
v -0.5 0.125 1
v -0.75 0.375 -3.3306690738754696e-16
v -0.75 0.375 1
v -0.5 0.125 -1.3877787807814457e-16
v -0.5 3.625 1
v -0.1875 3.75 -8.326672684688674e-17
v -0.1875 3.75 1
v -0.5 3.625 -1.3877787807814457e-16
v -0.875 0.6875 -3.3306690738754696e-16
v -0.875 0.6875 1
v -0.75 3.375 1
v -0.75 3.375 -3.3306690738754696e-16
v -0.875 1.6875 -3.3306690738754696e-16
v -0.875 1.1875 1
v -0.875 1.1875 -3.3306690738754696e-16
v -0.875 1.6875 1
v -0.875 2.625 -1
v -0.875 2.1875 -3.3306690738754696e-16
v -0.875 2.1875 -1
v -0.875 2.625 -3.3306690738754696e-16
v -0.1875 3.75 -1
v -0.5 3.625 -1
v -0.875 3.125 -3.3306690738754696e-16
v -0.875 2.625 1
v -0.875 3.125 1
v -0.875 0.6875 -1
v -0.75 0.375 -1
v -0.875 3.125 -1
v -0.75 3.375 -1
v -0.875 1.6875 -1
v -0.875 1.1875 -1
v -0.875 2.1875 1
v -0.5 0.125 -1
v 0.875 2.625 1
v 0.875 2.1875 0
v 0.875 2.1875 1
v 0.875 2.625 0
v 0.875 1.6875 0
v 0.875 1.6875 1
v 0.875 1.6875 -1
v 0.875 2.1875 -1
v 0.875 1.1875 0
v 0.875 1.1875 1
v 0.875 1.1875 -1
v 0.015625 1.75 0.96875
v -0.109375 2.25 1
v 0.015625 1.75 1
v -0.109375 2.25 0.96875
v 0.75 0.375 -1
v 0.875 0.6875 0
v 0.875 0.6875 -1
v 0.75 0.375 0
v 0.75 3.375 -1
v 0.5 3.625 0
v 0.5 3.625 -1
v 0.75 3.375 0
v 0.5 0.125 -1
v 0.5 0.125 0
v 0.1875 3.75 0
v 0.1875 3.75 -1
v -0.203125 2.75 0.96875
v -0.171875 2.75 0.96875
v -0.140625 2.25 0.96875
v -0.171875 2.75 1
v -0.015625 1.75 1
v -0.140625 2.25 1
v -0.015625 1.75 0.96875
v 0.1875 3.75 1
v 0.5 3.625 1
v 0.875 3.125 0
v 0.875 2.625 -1
v 0.875 3.125 -1
v 0.875 0.6875 1
v 0.75 0.375 1
v 0.875 3.125 1
v 0.75 3.375 1
v 0.015625 1.71875 1
v -0.015625 1.71875 1
v 0.5 0.125 1
v 0.09375 3.625 0.5
v 0.09375 3.625 -0.5
v 0.09375 3.75 -0.5
v -0.09375 3.625 0.5
v -0.09375 3.625 -0.5
v -0.09375 3.75 0.5
v -0.09375 3.75 -0.5
v 0.09375 3.75 0.5
v 0.015625 3.71875 -0.5
v -0.015625 3.71875 -1
v 0.015625 3.71875 -1
v 0.015625 3.71875 0.96875
v -0.015625 3.71875 0.5
v 0.015625 3.71875 0.5
v -0.015625 3.71875 0.96875
v -0.015625 3.71875 -0.5
v -0.015625 3.75 -0.5
v -0.015625 3.71875 0.46875
v -0.015625 3.75 0.96875
v -0.015625 3.75 0.46875
v -0.015625 3.75 -1
v 0.015625 3.75 0.5
v 0.015625 3.75 0.96875
v 0.015625 3.75 -1
v 0.015625 3.75 -0.5
v -0.015625 3.71875 0.9375
v -0.078125 3.21875 1
v -0.078125 3.21875 0.96875
v -0.046875 3.25 0.96875
v 0.015625 3.71875 0.9375
v -0.046875 3.25 1
v -0.078125 3.25 0.96875
v -0.203125 2.75 1
v -0.078125 3.25 1
vt 0.6875 0.875
vt 0.6796875 0.9375
vt 0.6796875 0.875
vt 0.6875 0.9375
vt 0.68359375 0.93359375
vt 0.6875 0.93359375
vt 0.68359375 0.9375
vt 0.8828117847442627 0.6406249403953552
vt 0.9062492847442627 0.6484373807907104
vt 0.9062492847442627 0.6406248807907104
vt 0.8828117847442627 0.6484374403953552
vt 0.8906242847442627 0.6484374403953552
vt 0.8906242847442627 0.6640624403953552
vt 0.9218742847442627 0.6406248807907104
vt 0.8828118443489075 0.6640624403953552
vt 0.8828118443489075 0.6835936307907104
vt 0.9218742847442627 0.6523436307907104
vt 0.9062492847442627 0.6601561307907104
vt 0.9062492847442627 0.6523436903953552
vt 0.8828117847442627 0.6523436903953552
vt 0.8828117847442627 0.6601561903953552
vt 0.8906242847442627 0.6757811903953552
vt 0.8906242847442627 0.6601561903953552
vt 0.8828118443489075 0.6757811903953552
vt 0.8828118443489075 0.6953123807907104
vt 0.9062492847442627 0.6406249403953552
vt 0.921874463558197 0.7499998807907104
vt 0.8593742847442627 0.640625
vt 0.859374463558197 0.75
vt 0.859374463558197 0.7499998807907104
vt 0.7968742847442627 0.640625
vt 0.796874463558197 0.75
vt 0.9062492847442627 0.6523436307907104
vt 0.93359375 0.984375
vt 0.9179686903953552 0.8749999403953552
vt 0.9179688096046448 0.984375
vt 0.9335936903953552 0.8749999403953552
vt 0.93359375 0.8867186903953552
vt 0.9179686903953552 0.99609375
vt 0.9179688096046448 0.8867186903953552
vt 0.9335936903953552 0.99609375
vt 0.93359375 1
vt 0.9179686903953552 0.8906249403953552
vt 0.9179688096046448 1
vt 0.9335936903953552 0.8906249403953552
vt 0.93359375 0.8828124403953552
vt 0.9179686903953552 0.9921875
vt 0.9179688096046448 0.8828124403953552
vt 0.9335936903953552 0.9921875
vt 0.93359375 0.8789061903953552
vt 0.9179686903953552 0.98828125
vt 0.9179688096046448 0.8789061903953552
vt 0.9335936903953552 0.98828125
vt 0.96875 0.8906249403953552
vt 0.9531249403953552 1
vt 0.9531250596046448 0.8906249403953552
vt 0.9687499403953552 1
vt 0.953125 0.8906249403953552
vt 0.9374999403953552 1
vt 0.9375000596046448 0.8906249403953552
vt 0.9765625 0.8906249403953552
vt 0.9609374403953552 1
vt 0.9609375596046448 0.8906249403953552
vt 0.9765624403953552 1
vt 0.984375 0.8906249403953552
vt 0.9687500596046448 0.8906249403953552
vt 0.9843749403953552 1
vt 0.9453125 0.8906249403953552
vt 0.9296874403953552 1
vt 0.9296875596046448 0.8906249403953552
vt 0.9453124403953552 1
vt 0.9609375 0.8906249403953552
vt 0.9453125596046448 0.8906249403953552
vt 0.9921875 0.8906249403953552
vt 0.9765625596046448 0.8906249403953552
vt 0.9921874403953552 1
vt 1 0.8906249403953552
vt 0.9843750596046448 0.8906249403953552
vt 0.9999999403953552 1
vt 0.93359375 0.8749999403953552
vt 0.9179686903953552 0.984375
vt 0.9179688096046448 0.8749999403953552
vt 0.9335936903953552 0.984375
vt 1 1
vt 0.9375 0.9375
vt 1 0.9375
vt 0.9375 1
vt 0.9400660395622253 0.8750000596046448
vt 0.9179689288139343 0.9375
vt 0.9179689288139343 0.8750000596046448
vt 0.9400660395622253 0.9375
vt 0.8124992847442627 0.9375
vt 0.7916653156280518 0.875
vt 0.7916653156280518 0.9375
vt 0.8124992847442627 0.875
vt 0.9101564288139343 0.9999998807907104
vt 0.8906437158584595 0.9375
vt 0.8906439542770386 1
vt 0.9101561307907104 0.9374998807907104
vt 0.8333332538604736 0.9375
vt 0.8333332538604736 0.875
vt 0.8671356439590454 0.93768310546875
vt 0.8984562158584595 0.9999999403953552
vt 0.8984562158584595 0.9375
vt 0.8671356439590454 1.0000267028808594
vt 0.8945499658584595 0.93768310546875
vt 0.8671356439590454 0.9999999403953552
vt 0.8671356439590454 0.9375
vt 0.8945499658584595 1.0000267028808594
vt 0.8124992847442627 1
vt 0.7916653156280518 1
vt 0.8541660308837891 0.875
vt 0.8854160308837891 0.9375
vt 0.8854160308837891 0.875
vt 0.854095458984375 0.93768310546875
vt 0.8125 0.875
vt 0.8125 0.9375
vt 0.8125 1
vt 0.7916660308837891 0.9375
vt 0.890643298625946 0.8750000596046448
vt 0.910155713558197 0.8749998807907104
vt 0.8541660308837891 0.9375
vt 0.8854866027832031 0.9998168349266052
vt 0.8854866027832031 0.93731689453125
vt 0.8541660308837891 1
vt 0.8333332538604736 1
vt 0.8541653156280518 0.9375
vt 0.8541653156280518 0.875
vt 0.8333339691162109 0.9375
vt 0.9166660308837891 0.9375
vt 0.8958339691162109 0.875
vt 0.8958339691162109 0.9375
vt 0.9166660308837891 1
vt 0.8958339691162109 1
vt 0.8672062158584595 0.93768310546875
vt 0.8984562158584595 0.87518310546875
vt 0.8984562158584595 0.93768310546875
vt 0.8671356439590454 0.875
vt 0.9061981439590454 0.93768310546875
vt 0.8749481439590454 0.87518310546875
vt 0.8749481439590454 0.93768310546875
vt 0.9062687158584595 0.875
vt 0.999922513961792 0.9602199196815491
vt 1.022019624710083 0.8977198600769043
vt 0.9827358722686768 0.9463310241699219
vt 1.0392061471939087 0.9116088151931763
vt 0.9166660308837891 0.875
vt 0.9062687158584595 0.9999999403953552
vt 0.9062687158584595 0.9375
vt 0.8749481439590454 1.0000267028808594
vt 0.9218937158584595 0.93768310546875
vt 0.8905731439590454 0.9999999403953552
vt 0.8905731439590454 0.9375
vt 0.9218937158584595 1.0000267028808594
vt 0.8945499658584595 0.87518310546875
vt 0.8671356439590454 0.9374999403953552
vt 0.8945499658584595 0.9375267028808594
vt 0.9218231439590454 0.875
vt 0.8905731439590454 0.875
vt 0.7916660308837891 1
vt 0.8541653156280518 1
vt 0.9179689288139343 1
vt 0.9400660395622253 1
vt 0.8333339691162109 0.875
vt 0.62890625 1
vt 0.6328125 0.96875
vt 0.6328125 1
vt 0.62890625 0.96875
vt 0.6328125 0.90625
vt 0.62890625 0.875
vt 0.6328125 0.875
vt 0.62890625 0.90625
vt 0.66796875 1
vt 0.66796875 0.9375
vt 0.6484375 1
vt 0.6484375 0.9375
vt 0.63671875 1
vt 0.63671875 0.9375
vt 0.66796875 0.92578125
vt 0.6484375 0.92578125
vt 0.734375 0.9375
vt 0.734375 1
vt 0.6875 1
vt 0.734375 0.875
vt 0.6796875 1
vn 1 0 0
vn 0 -1 0
vn -1 0 0
vn 0 0 -1
vn 0 0 1
vn 0 1 0
vn 0.70710678 0.70710678 0
vn 0.37139068 -0.92847669 0
vn 0.92847669 0.37139068 0
vn 0.70710678 -0.70710678 0
vn 0.89442719 -0.4472136 0
vn 0.9701425 0.24253563 0
vn -0.92847669 0.37139068 0
vn -0.70710678 -0.70710678 0
vn -0.70710678 0.70710678 0
vn -0.37139068 -0.92847669 0
vn 0.99227788 0.12403473 0
vn -0.9701425 -0.24253563 0
vn -0.89442719 -0.4472136 0
vn 0 -0.70710678 -0.70710678
vn -0.99227788 0.12403473 0
vn 0 -0.06651901 -0.99778516
vn 0.07106691 -0.07106691 -0.99493668
vn 0.9912279 -0.13216372 0
vn -0.9701425 0.24253563 0
vn 0.9701425 -0.24253563 0
vn -0.99227788 -0.12403473 0
g Tunnel_StairStraight
usemtl 0
f 1/1/1 2/2/1 3/3/1
f 1/1/1 4/4/1 2/2/1
f 4/1/1 5/2/1 2/3/1
f 4/1/1 6/4/1 5/2/1
f 7/1/1 8/2/1 9/3/1
f 7/1/1 10/4/1 8/2/1
f 10/1/1 11/2/1 8/3/1
f 10/1/1 12/4/1 11/2/1
f 7/4/2 13/2/2 14/3/2
f 7/4/2 14/3/2 10/1/2
f 10/4/2 14/2/2 15/3/2
f 10/4/2 15/3/2 12/1/2
f 1/4/2 16/3/2 4/1/2
f 1/4/2 17/2/2 16/3/2
f 4/4/2 16/2/2 18/3/2
f 4/4/2 18/3/2 6/1/2
f 14/1/3 13/4/3 19/2/3
f 14/1/3 19/2/3 20/3/3
f 15/1/3 14/4/3 20/2/3
f 15/1/3 20/2/3 21/3/3
f 18/1/3 22/2/3 23/3/3
f 18/1/3 16/4/3 22/2/3
f 16/1/3 24/2/3 22/3/3
f 16/1/3 17/4/3 24/2/3
f 25/1/1 26/2/1 27/3/1
f 25/1/1 28/4/1 26/2/1
f 28/1/1 1/2/1 26/3/1
f 28/1/3 29/1/3 1/2/3
f 28/1/1 30/4/1 1/2/1
f 31/1/1 32/2/1 33/3/1
f 31/1/1 34/4/1 32/2/1
f 34/1/1 7/2/1 32/3/1
f 34/1/1 35/4/1 7/2/1
f 31/4/4 36/2/4 37/3/4
f 31/4/4 37/3/4 34/1/4
f 34/4/4 37/2/4 38/3/4
f 34/4/4 38/3/4 35/1/4
f 25/4/4 39/3/4 28/1/4
f 25/4/4 40/2/4 39/3/4
f 28/4/4 39/2/4 41/3/4
f 28/4/4 41/3/4 30/1/4
f 37/1/3 36/4/3 42/2/3
f 37/1/3 42/2/3 43/3/3
f 38/1/3 37/4/3 43/2/3
f 38/1/3 43/2/3 13/3/3
f 41/1/3 44/2/3 17/3/3
f 41/1/3 39/4/3 44/2/3
f 39/1/3 45/2/3 44/3/3
f 39/1/3 40/4/3 45/2/3
f 33/4/2 36/5/2 31/6/2
f 33/4/2 42/7/2 36/5/2
f 27/4/2 40/5/2 25/6/2
f 27/4/2 45/7/2 40/5/2
f 46/8/5 47/9/5 48/10/5
f 46/8/5 49/11/5 47/9/5
f 50/12/5 51/13/5 47/9/5
f 48/10/5 47/9/5 52/14/5
f 49/11/5 51/13/5 50/12/5
f 49/11/5 53/15/5 51/13/5
f 53/15/5 54/16/5 51/13/5
f 55/17/5 56/18/5 57/19/5
f 57/19/5 56/18/5 58/20/5
f 56/18/5 59/21/5 58/20/5
f 56/18/5 60/22/5 61/23/5
f 61/23/5 60/22/5 59/21/5
f 60/22/5 62/24/5 59/21/5
f 60/22/5 63/25/5 62/24/5
f 64/26/4 65/9/4 66/14/4
f 67/12/4 68/13/4 65/9/4
f 69/8/4 65/9/4 64/26/4
f 69/8/4 70/11/4 65/9/4
f 70/11/4 68/13/4 67/12/4
f 70/11/4 71/15/4 68/13/4
f 71/15/4 72/16/4 68/13/4
f 73/27/4 74/28/4 75/29/4
f 73/27/4 69/14/4 74/28/4
f 75/30/4 76/31/4 77/32/4
f 75/30/4 74/28/4 76/31/4
f 78/23/4 79/22/4 80/21/4
f 79/22/4 81/24/4 80/21/4
f 82/33/4 83/18/4 73/20/4
f 83/18/4 80/21/4 73/20/4
f 83/18/4 79/22/4 78/23/4
f 79/22/4 84/25/4 81/24/4
f 85/17/4 83/18/4 82/33/4
f 86/34/6 87/35/6 88/36/6
f 86/34/6 89/37/6 87/35/6
f 90/38/6 91/39/6 92/40/6
f 90/38/6 93/41/6 91/39/6
f 94/34/6 95/35/6 96/36/6
f 94/34/6 97/37/6 95/35/6
f 98/42/6 99/43/6 100/44/6
f 98/42/6 101/45/6 99/43/6
f 102/46/6 103/47/6 104/48/6
f 102/46/6 105/49/6 103/47/6
f 106/42/6 107/43/6 108/44/6
f 106/42/6 109/45/6 107/43/6
f 110/50/6 111/51/6 112/52/6
f 110/50/6 113/53/6 111/51/6
f 104/54/5 109/55/5 106/56/5
f 104/54/5 103/57/5 109/55/5
f 112/58/5 114/59/5 115/60/5
f 112/58/5 111/55/5 114/59/5
f 100/61/5 105/62/5 102/63/5
f 100/61/5 99/64/5 105/62/5
f 96/65/5 101/57/5 98/66/5
f 96/65/5 95/67/5 101/57/5
f 116/68/5 117/69/5 118/70/5
f 116/68/5 119/71/5 117/69/5
f 108/72/5 113/71/5 110/73/5
f 108/72/5 107/62/5 113/71/5
f 92/74/5 97/64/5 94/75/5
f 92/74/5 91/76/5 97/64/5
f 88/77/5 93/67/5 90/78/5
f 88/77/5 87/79/5 93/67/5
f 115/80/6 119/81/6 116/82/6
f 115/80/6 114/83/6 119/81/6
f 86/84/5 120/85/5 121/86/5
f 86/84/5 89/87/5 120/85/5
f 122/88/7 123/89/7 124/90/7
f 122/88/7 125/91/7 123/89/7
f 126/92/8 127/93/8 128/94/8
f 126/92/8 129/95/8 127/93/8
f 124/96/9 130/97/9 131/98/9
f 124/96/9 123/99/9 130/97/9
f 132/100/10 129/95/10 126/92/10
f 132/100/10 133/101/10 129/95/10
f 134/102/1 135/103/1 136/104/1
f 134/102/1 137/105/1 135/103/1
f 138/106/1 139/107/1 140/108/1
f 138/106/1 141/109/1 139/107/1
f 129/110/8 142/94/8 127/111/8
f 129/110/8 143/92/8 142/94/8
f 144/112/1 145/113/1 141/114/1
f 144/112/1 146/115/1 145/113/1
f 132/100/10 133/101/10 129/116/10
f 132/100/10 129/116/10 126/117/10
f 126/118/8 129/117/8 127/119/8
f 123/99/9 147/120/9 130/97/9
f 123/99/9 148/121/9 147/120/9
f 129/118/8 142/94/8 127/111/8
f 149/122/1 141/123/1 138/124/1
f 149/122/1 144/125/1 141/123/1
f 133/126/10 143/92/10 129/110/10
f 133/126/10 150/100/10 143/92/10
f 146/127/11 133/101/11 132/100/11
f 146/127/11 144/128/11 133/101/11
f 144/128/11 150/129/11 133/101/11
f 144/128/11 149/122/11 150/129/11
f 123/130/9 147/131/9 130/132/9
f 124/133/9 123/130/9 130/132/9
f 124/133/9 130/132/9 131/134/9
f 151/135/1 136/136/1 152/137/1
f 151/135/1 134/138/1 136/136/1
f 139/139/1 137/140/1 134/141/1
f 139/139/1 153/142/1 137/140/1
f 125/143/7 148/144/7 123/145/7
f 125/143/7 154/146/7 148/144/7
f 123/130/9 148/147/9 147/131/9
f 140/141/1 134/148/1 151/149/1
f 140/141/1 139/150/1 134/148/1
f 122/87/7 125/85/7 123/130/7
f 122/87/7 123/130/7 124/133/7
f 152/151/1 130/152/1 147/153/1
f 152/151/1 136/154/1 130/152/1
f 141/155/1 153/156/1 139/138/1
f 141/155/1 145/157/1 153/156/1
f 136/158/1 131/153/1 130/159/1
f 136/158/1 135/151/1 131/153/1
f 126/118/8 127/119/8 128/160/8
f 144/161/11 150/129/11 133/126/11
f 144/161/11 149/122/11 150/129/11
f 125/91/7 148/162/7 123/89/7
f 125/91/7 154/163/7 148/162/7
f 133/129/10 150/164/10 143/116/10
f 133/129/10 143/116/10 129/117/10
f 129/118/8 143/117/8 142/94/8
f 155/106/3 156/107/3 157/108/3
f 155/106/3 158/109/3 156/107/3
f 157/141/3 159/148/3 160/149/3
f 157/141/3 156/150/3 159/148/3
f 156/139/3 161/140/3 159/141/3
f 156/139/3 162/142/3 161/140/3
f 160/135/3 163/136/3 164/137/3
f 160/135/3 159/138/3 163/136/3
f 159/102/3 165/103/3 163/104/3
f 159/102/3 161/105/3 165/103/3
f 166/165/12 167/166/12 168/167/12
f 166/165/12 169/168/12 167/166/12
f 170/96/13 171/97/13 172/98/13
f 170/96/13 173/99/13 171/97/13
f 174/100/14 175/95/14 176/92/14
f 174/100/14 177/101/14 175/95/14
f 178/88/15 173/89/15 170/90/15
f 178/88/15 179/91/15 173/89/15
f 176/92/16 180/93/16 181/94/16
f 176/92/16 175/95/16 180/93/16
f 169/169/4 182/170/4 183/171/4
f 169/169/4 184/172/4 182/170/4
f 169/165/17 185/166/17 167/167/17
f 169/165/17 183/168/17 185/166/17
f 121/84/6 117/85/6 118/86/6
f 121/84/6 120/87/6 117/85/6
f 184/165/18 186/166/18 187/167/18
f 184/165/18 188/168/18 186/166/18
f 175/110/16 189/94/16 180/111/16
f 175/110/16 190/92/16 189/94/16
f 191/112/3 192/113/3 158/114/3
f 191/112/3 193/115/3 192/113/3
f 174/100/14 177/101/14 175/116/14
f 174/100/14 175/116/14 176/117/14
f 176/118/16 175/117/16 180/119/16
f 173/99/13 194/120/13 171/97/13
f 173/99/13 195/121/13 194/120/13
f 175/118/16 189/94/16 180/111/16
f 196/122/3 158/123/3 155/124/3
f 196/122/3 191/125/3 158/123/3
f 177/126/14 190/92/14 175/110/14
f 177/126/14 197/100/14 190/92/14
f 193/127/19 177/101/19 174/100/19
f 193/127/19 191/128/19 177/101/19
f 191/128/19 197/129/19 177/101/19
f 191/128/19 196/122/19 197/129/19
f 173/130/13 194/131/13 171/132/13
f 170/133/13 173/130/13 171/132/13
f 170/133/13 171/132/13 172/134/13
f 198/169/20 188/170/20 166/171/20
f 198/169/20 199/172/20 188/170/20
f 188/169/3 199/172/3 186/170/3
f 179/143/15 195/144/15 173/145/15
f 179/143/15 200/146/15 195/144/15
f 173/130/13 195/147/13 194/131/13
f 168/169/1 198/172/1 166/170/1
f 178/87/15 179/85/15 173/130/15
f 166/169/4 184/170/4 169/171/4
f 166/169/4 188/172/4 184/170/4
f 178/87/15 173/130/15 170/133/15
f 164/151/3 171/152/3 194/153/3
f 164/151/3 163/154/3 171/152/3
f 158/155/3 162/156/3 156/138/3
f 158/155/3 192/157/3 162/156/3
f 163/158/3 172/153/3 171/159/3
f 163/158/3 165/151/3 172/153/3
f 176/118/16 180/119/16 181/160/16
f 191/161/19 197/129/19 177/126/19
f 191/161/19 196/122/19 197/129/19
f 179/91/15 195/162/15 173/89/15
f 179/91/15 200/163/15 195/162/15
f 177/129/14 197/164/14 190/116/14
f 177/129/14 190/116/14 175/117/14
f 175/118/16 190/117/16 189/94/16
f 201/173/1 202/174/1 203/2/1
f 204/175/2 205/176/2 202/174/2
f 204/175/2 202/174/2 201/173/2
f 205/177/3 204/178/3 206/176/3
f 205/177/3 206/176/3 207/175/3
f 206/174/5 204/179/5 201/180/5
f 206/174/5 201/180/5 208/176/5
f 209/170/2 210/169/2 211/172/2
f 212/169/2 213/170/2 214/171/2
f 212/169/2 215/172/2 213/170/2
f 210/172/3 216/170/3 217/171/3
f 218/165/3 219/166/3 220/167/3
f 218/165/3 215/168/3 219/166/3
f 210/172/3 217/171/3 221/169/3
f 212/165/1 222/166/1 223/167/1
f 212/165/1 214/168/1 222/166/1
f 127/181/2 142/182/2 181/183/2
f 127/181/2 181/183/2 180/4/2
f 203/176/4 205/179/4 207/174/4
f 203/176/4 202/180/4 205/179/4
f 209/172/1 224/171/1 225/169/1
f 209/172/1 211/170/1 224/171/1
f 209/170/2 216/171/2 210/169/2
f 128/181/2 180/1/2 189/4/2
f 128/181/2 127/184/2 180/1/2
f 201/173/1 203/2/1 208/185/1
f 226/165/21 227/166/21 215/167/21
f 226/165/21 228/168/21 227/166/21
f 229/169/22 226/170/22 230/171/22
f 229/169/23 228/172/23 226/170/23
f 229/165/24 212/166/24 231/167/24
f 229/165/24 230/168/24 212/166/24
f 232/165/25 233/166/25 234/167/25
f 232/165/25 182/168/25 233/166/25
f 183/169/4 232/170/4 229/171/4
f 183/169/4 182/172/4 232/170/4
f 183/165/26 231/166/26 185/167/26
f 183/165/26 229/168/26 231/166/26
f 182/165/27 187/166/27 233/167/27
f 182/165/27 184/168/27 187/166/27
