mtllib material.mtl
o Default
v 0.015625 1.71875 1
v 0.078125 1.71875 0.6875
v 0.078125 1.75 0.6875
v 0.015625 1.75 1
v -0.015625 1.71875 1
v 0.046875 1.71875 0.6875
v -0.015625 1.75 1
v 0.046875 1.75 0.6875
v 0.6622621417045593 1.625 -0.044844627380371094
v -0.044844627380371094 1.625 0.6622622013092041
v -0.044844627380371094 1.75 0.6622622013092041
v 0.6622621417045593 1.75 -0.044844627380371094
v 0.7948446273803711 1.625 0.08773791790008545
v 0.08773785829544067 1.625 0.7948446273803711
v 0 1.625 -0.34375
v -0.34375 1.625 0
v -0.34375 1.6875 0
v 0 1.6875 -0.34375
v 0.08773785829544067 1.75 0.7948446273803711
v 0.7948446273803711 1.75 0.08773791790008545
v -1 0 1
v 0 0 1
v 0 0 0
v -1 0 0
v 1 0 1
v 1 0 0
v 1 0 -1
v 0 0 -1
v -1 0 -1
v 0 1.625 -0.28125
v 1 1.625 -0.34375
v 1 1.625 -0.28125
v 1 1.71875 -0.28125
v 0 1.71875 -0.28125
v -0.28125 1.625 1
v -0.28125 1.625 -2.6645352591003757e-15
v -0.28125 1.71875 -2.6645352591003757e-15
v -0.28125 1.71875 1
v -0.34375 1.625 1
v -0.34375 1.6875 1
v 0.34375 1.625 1
v 1 1.625 0.34375
v 1 1.6875 0.34375
v 0.34375 1.6875 1
v 1 1.625 0.28125
v 0.28125 1.625 1
v 0.28125 1.71875 1
v 1 1.71875 0.28125
v 0 1.625 -0.5
v 1 1.625 -0.5
v 1 1.75 -0.1875
v 0 1.75 -0.1875
v 0 1.375 -0.75
v 1 1.375 -0.75
v 0 1.125 -0.875
v 1 1.125 -0.875
v 0 0.6875 -0.875
v 1 0.6875 -0.875
v 0 0.375 -0.75
v 1 0.375 -0.75
v 0 0.125 -0.5
v 1 0.125 -0.5
v -0.5 1.625 1
v -0.5 1.625 0
v -0.1875 1.75 0
v -0.1875 1.75 1
v -0.875 1.125 1
v -0.875 1.125 0
v -0.75 1.375 0
v -0.75 1.375 1
v -0.5 0.125 1
v -0.5 0.125 0
v -0.75 0.375 0
v -0.75 0.375 1
v -0.875 0.6875 1
v -0.875 0.6875 0
v 1 1.75 0.1875
v 0.1875 1.75 1
v 0.5 0.125 0.5
v 0.5 0.125 0
v 0 0.125 0
v 0 0.125 0.5
v -0.5 0.125 0.5
v 0.5 0.125 -0.5
v 0.5 0.125 1
v 1 0.125 0.5
v 1 1.375 0.75
v 0.75 1.375 1
v 0.5 1.625 1
v 1 1.625 0.5
v 1 1.125 0.875
v 0.875 1.125 1
v 1 0.6875 0.875
v 0.875 0.6875 1
v 1 0.375 0.75
v 0.75 0.375 1
v 1 1.6875 -0.34375
v 0.75 1.71875 0.078125
v 1 1.71875 0.015625
v 1 1.75 0.015625
v 0.75 1.75 0.078125
v 0.75 1.71875 0.046875
v 1 1.71875 -0.015625
v 0.75 1.75 0.046875
v 1 1.75 -0.015625
vt 0.62890625 0.90625
vt 0.62890625 0.875
vt 0.6328125 0.875
vt 0.6328125 0.90625
vt 0.63671875 1
vt 0.63671875 0.9375
vt 0.6484375 0.9375
vt 0.6484375 1
vt 0.66796875 0.9375
vt 0.66796875 1
vt 0.6875 0.875
vt 0.6874999403953552 0.9053834676742554
vt 0.6835936903953552 0.9053834676742554
vt 0.68359375 0.875
vt 0.66796875 0.92578125
vt 0.6484375 0.92578125
vt 0.6796875 0.9375
vt 0.6796875 1
vt 0.9375 0.6875
vt 1 0.6875
vt 1 0.75
vt 0.9375 0.75
vt 0.6875 0.9375
vt 0.6796875 0.875
vt 0.6874997615814209 0.9385291337966919
vt 0.6816403269767761 0.9385290741920471
vt 0.681640625 0.875
vt 0.6847378611564636 0.9402621388435364
vt 0.6847377419471741 0.8767330050468445
vt 0.6874999403953552 0.8794951438903809
vt 0.8125 0.9375
vt 0.8125 0.875
vt 0.7916660308837891 0.875
vt 0.7916660308837891 0.9375
vt 0.8333339691162109 0.9375
vt 0.8333339691162109 0.875
vt 0.8541660308837891 0.875
vt 0.8541660308837891 0.9375
vt 0.8541660308837891 0.87481689453125
vt 0.854095458984375 0.9375
vt 0.8958339691162109 0.93731689453125
vt 0.8958339691162109 0.87481689453125
vt 0.9166660308837891 0.9375
vt 0.9166660308837891 0.875
vt 0.8958339691162109 0.875
vt 0.8958339691162109 0.9375
vt 0.9375 0.9375
vt 0.9375 0.875
vt 0.8125 1
vt 0.7916660308837891 1
vt 0.8541660308837891 1
vt 0.8333339691162109 1
vt 0.9375 1
vt 0.9166660308837891 1
vt 0.8541660308837891 0.93731689453125
vt 0.854095458984375 1
vt 0.8958339691162109 0.99981689453125
vt 0.8958339691162109 1
vt 0.9377557635307312 0.9567248225212097
vt 0.9377557039260864 0.9125306606292725
vt 0.9166659116744995 0.9014821648597717
vt 0.9166660308837891 0.9677734375
vt 0.6983007192611694 0.7734653353691101
vt 0.7278446555137634 0.8741828203201294
vt 0.7072770595550537 0.8629447817802429
vt 0.6870628595352173 0.7940328121185303
vt 0.7578125 0.8193359375
vt 0.7531476616859436 0.8034330606460571
vt 0.8131663799285889 0.9575357437133789
vt 0.8131663799285889 0.9133415818214417
vt 0.7924162745475769 0.9271522760391235
vt 0.7924163341522217 0.943725049495697
vt 0.8338685631752014 0.9676215648651123
vt 0.8338685035705566 0.901330292224884
vt 0.8133677244186401 0.9133692979812622
vt 0.8133677244186401 0.9575635194778442
vt 0.8547006249427795 0.9732978940010071
vt 0.8547005653381348 0.8959580063819885
vt 0.8958339691162109 0.97344970703125
vt 0.8963685035705566 0.8959579467773438
vt 0.8547006249427795 0.9732978343963623
vt 0.96875 0.9375
vt 0.96875 0.96875
vt 0.9375 0.96875
vt 0.96875 0.96484375
vt 0.9375 0.96484375
vt 0.9375 0.93359375
vt 0.96875 0.93359375
vt 0.95703125 0.94921875
vt 0.98828125 0.94921875
vt 0.98828125 0.98046875
vt 0.95703125 0.98046875
vt 0.94140625 0.93359375
vt 0.97265625 0.9648436903953552
vt 0.9726563096046448 0.93359375
vt 1.0000195503234863 0.9081471562385559
vt 1 0.9375
vt 0.833641529083252 0.9482996463775635
vt 0.833641529083252 0.9703966975212097
vt 0.8125517964363098 0.977787971496582
vt 0.812551736831665 0.937251091003418
vt 0.8541206121444702 0.9538238644599915
vt 0.8541206121444702 0.964872419834137
vt 0.8961127996444702 0.953823983669281
vt 0.8961127996444702 0.9648724794387817
vt 0.8541206121444702 0.9538239240646362
vt 0.9183633923530579 0.9482996463775635
vt 0.9183633923530579 0.9703967571258545
vt 0.8961127996444702 0.9538239240646362
vt 0.9375 0.937251091003418
vt 0.9375 0.9814453125
vt 1 1
vt 0.9687500596046448 1
vt 0.8145049214363098 0.937251091003418
vt 0.7918017506599426 0.9915986061096191
vt 0.7918017506599426 0.9234404563903809
vt 1 0.97265625
vt 0.9375 0.9726561903953552
vt 0.9375 0.94140625
vt 1 0.94140625
vt 0.6798550486564636 0.9402621388435364
vt 0.6798551082611084 0.909878671169281
vt 0.6875000596046448 0.9126408100128174
vt 0.6865234375 0.875
vt 0.6865234971046448 0.8998592495918274
vt 0.6806641221046448 0.8998591899871826
vt 0.6806640625 0.875
vt 0.9166659116744995 0.9014822244644165
vt 0.8963685631752014 0.9732978343963623
vt 0.62890625 1
vt 0.62890625 0.96875
vt 0.6328125 0.96875
vt 0.6328125 1
vn 0.98058068 0 0.19611614
vn 0 -1 0
vn -0.98058068 0 -0.19611614
vn -0.70710681 0 -0.70710675
vn -0.70710678 0 -0.70710678
vn -0.70710662 0 0.70710694
vn 0.70710675 0 0.70710681
vn 0.70710694 0 -0.70710662
vn 0 1 0
vn 0 0 1
vn 1 0 0
vn -1 0 0
vn 0.70710678 0 0.70710678
vn 0 -0.92847669 0.37139068
vn 0 -0.70710678 0.70710678
vn 0 -0.4472136 0.89442719
vn 0 0.37139068 0.92847669
vn 0 0.70710678 0.70710678
vn 0.37139068 -0.92847669 0
vn 0.89442719 -0.4472136 0
vn 0.70710678 -0.70710678 0
vn 0.70710678 0.70710678 0
vn 0.92847669 0.37139068 0
vn 0.57735027 0.57735027 0.57735027
vn 0.34815531 -0.87038828 0.34815531
vn 0.57735027 -0.57735027 0.57735027
vn 0.66666667 -0.33333333 0.66666667
vn -0.57735027 -0.57735027 -0.57735027
vn -0.66666667 -0.33333333 -0.66666667
vn -0.68041382 0.27216553 -0.68041382
vn -0.57735027 0.57735027 -0.57735027
vn -0.34815531 -0.87038828 -0.34815531
vn 0 0 -1
vn 0.68041382 0.27216553 0.68041382
vn 0.24253563 0 0.9701425
vn -0.24253563 0 -0.9701425
g Tunnel_Corner
usemtl 0
f 1/1/1 2/2/1 3/3/1
f 1/1/1 3/3/1 4/4/1
f 1/2/2 5/3/2 6/4/2
f 1/2/2 6/4/2 2/1/2
f 6/1/3 5/2/3 7/3/3
f 6/1/3 7/3/3 8/4/3
f 9/5/4 10/6/4 11/7/4
f 9/5/4 11/7/4 12/8/4
f 10/8/2 9/7/2 13/9/2
f 10/8/2 13/9/2 14/10/2
f 15/11/5 16/12/5 17/13/5
f 15/11/5 17/13/5 18/14/5
f 11/9/6 10/15/6 14/16/6
f 11/9/6 14/16/6 19/7/6
f 14/10/7 13/9/7 20/17/7
f 14/10/7 20/17/7 19/18/7
f 20/7/8 13/16/8 9/15/8
f 20/7/8 9/15/8 12/9/8
f 21/19/9 22/20/9 23/21/9
f 21/19/9 23/21/9 24/22/9
f 22/19/9 25/20/9 26/21/9
f 22/19/9 26/21/9 23/22/9
f 23/19/9 26/20/9 27/21/9
f 23/19/9 27/21/9 28/22/9
f 24/19/9 23/20/9 28/21/9
f 24/19/9 28/21/9 29/22/9
f 30/23/2 15/17/2 31/24/2
f 30/23/2 31/24/2 32/11/2
f 30/11/10 32/23/10 33/17/10
f 30/11/10 33/17/10 34/24/10
f 35/11/11 36/23/11 37/17/11
f 35/11/11 37/17/11 38/24/11
f 16/11/12 39/23/12 40/17/12
f 16/11/12 40/17/12 17/24/12
f 35/23/2 39/17/2 16/24/2
f 35/23/2 16/24/2 36/11/2
f 41/11/13 42/23/13 43/17/13
f 41/11/13 43/17/13 44/24/13
f 45/11/5 46/25/5 47/26/5
f 45/11/5 47/26/5 48/27/5
f 41/23/2 46/28/2 45/29/2
f 41/23/2 45/29/2 42/30/2
f 49/31/14 50/32/14 51/33/14
f 49/31/14 51/33/14 52/34/14
f 53/35/15 54/36/15 50/32/15
f 53/35/15 50/32/15 49/31/15
f 55/37/16 56/38/16 54/35/16
f 55/37/16 54/35/16 53/36/16
f 56/39/10 55/40/10 57/41/10
f 56/39/10 57/41/10 58/42/10
f 59/43/17 60/44/17 58/45/17
f 59/43/17 58/45/17 57/46/17
f 61/47/18 62/48/18 60/44/18
f 61/47/18 60/44/18 59/43/18
f 63/49/19 64/31/19 65/34/19
f 63/49/19 65/34/19 66/50/19
f 67/51/20 68/38/20 69/35/20
f 67/51/20 69/35/20 70/52/20
f 70/52/21 69/35/21 64/31/21
f 70/52/21 64/31/21 63/49/21
f 71/53/22 72/47/22 73/43/22
f 71/53/22 73/43/22 74/54/22
f 68/55/11 67/56/11 75/57/11
f 68/55/11 75/57/11 76/41/11
f 74/54/23 73/43/23 76/46/23
f 74/54/23 76/46/23 75/58/23
f 72/59/24 61/60/24 59/61/24
f 72/59/24 59/61/24 73/62/24
f 66/63/2 51/64/2 77/65/2
f 66/63/2 77/65/2 78/66/2
f 52/67/2 51/64/2 66/63/2
f 52/67/2 66/63/2 65/68/2
f 64/69/25 49/70/25 52/71/25
f 64/69/25 52/71/25 65/72/25
f 69/73/26 53/74/26 49/75/26
f 69/73/26 49/75/26 64/76/26
f 68/77/27 55/78/27 53/74/27
f 68/77/27 53/74/27 69/73/27
f 76/79/13 57/80/13 55/78/13
f 76/79/13 55/78/13 68/81/13
f 79/47/9 80/82/9 81/83/9
f 79/47/9 81/83/9 82/84/9
f 82/85/9 81/86/9 72/87/9
f 82/85/9 72/87/9 83/88/9
f 81/89/9 80/90/9 84/91/9
f 81/89/9 84/91/9 61/92/9
f 61/93/9 72/94/9 81/95/9
f 85/82/9 86/96/9 79/97/9
f 87/98/28 88/99/28 89/100/28
f 87/98/28 89/100/28 90/101/28
f 91/102/29 92/103/29 88/99/29
f 91/102/29 88/99/29 87/98/29
f 93/104/5 94/105/5 92/103/5
f 93/104/5 92/103/5 91/106/5
f 95/107/30 96/108/30 94/105/30
f 95/107/30 94/105/30 93/109/30
f 86/110/31 85/111/31 96/108/31
f 86/110/31 96/108/31 95/107/31
f 81/47/9 80/82/9 84/83/9
f 81/47/9 84/83/9 61/84/9
f 79/82/9 86/97/9 62/112/9
f 79/82/9 62/112/9 84/113/9
f 90/114/32 89/100/32 78/115/32
f 90/114/32 78/115/32 77/116/32
f 71/117/9 85/118/9 79/119/9
f 71/117/9 79/119/9 83/120/9
f 36/23/2 16/121/2 15/122/2
f 36/23/2 15/122/2 30/123/2
f 36/124/13 30/125/13 34/126/13
f 36/124/13 34/126/13 37/127/13
f 31/11/33 15/23/33 18/17/33
f 31/11/33 18/17/33 97/24/33
f 73/62/34 59/128/34 57/80/34
f 73/62/34 57/80/34 76/129/34
f 98/130/35 99/131/35 100/132/35
f 98/130/35 100/132/35 101/133/35
f 98/4/2 102/1/2 103/2/2
f 98/4/2 103/2/2 99/3/2
f 103/130/36 102/131/36 104/132/36
f 103/130/36 104/132/36 105/133/36
