o Default
v -1 8.881784197001252e-16 0
v -4.440892098500626e-16 -4.440892098500626e-16 -1
v -1 4.440892098500626e-16 -1
v 0 0 0
v -1 1.3322676295501878e-15 1
v 4.440892098500626e-16 4.440892098500626e-16 1
v 1 -1.3322676295501878e-15 -1
v 1 -8.881784197001252e-16 0
v 1 -4.440892098500626e-16 1
v 1 0.125 -1
v 1.1102230246251565e-16 0.125 0
v 1 0.125 0
v -3.3306690738754696e-16 0.125 -1
v -1 0.125 0
v -1 0.125 -1
v -1 0.125 1
v 5.551115123125783e-16 0.125 1
v 1 0.125 1
vt 0.9375 0.6875
vt 1 0.75
vt 0.9375 0.75
vt 1 0.6875
vt 0.5000001788139343 0.3749998211860657
vt 0.4375002980232239 0.3124997615814209
vt 0.5000002384185791 0.3124998211860657
vt 0.4375001788139343 0.3749997615814209
vt 0.5000001192092896 0.3124998211860657
vt 0.43750014901161194 0.37499985098838806
vt 0.5000001788139343 0.3749997913837433
vt 0.43750014901161194 0.31249988079071045
vt 0.5000001788139343 0.31249988079071045
vt 0.4375001788139343 0.3749998211860657
vt 0.4375001788139343 0.3124998211860657
vt 0.5000001192092896 0.3749998211860657
vt 0.43750014901161194 0.3749997615814209
vt 0.4375002086162567 0.3124997913837433
vn 0 1 0
g Util_Floor
usemtl 0
f 1/1/1 2/2/1 3/3/1
f 1/1/1 4/4/1 2/2/1
f 5/1/1 4/2/1 1/3/1
f 5/1/1 6/4/1 4/2/1
f 4/1/1 7/2/1 2/3/1
f 4/1/1 8/4/1 7/2/1
f 6/1/1 8/2/1 4/3/1
f 6/1/1 9/4/1 8/2/1
f 10/5/1 11/6/1 12/7/1
f 10/5/1 13/8/1 11/6/1
f 13/9/1 14/10/1 11/11/1
f 13/9/1 15/12/1 14/10/1
f 11/13/1 16/14/1 17/15/1
f 11/13/1 14/16/1 16/14/1
f 12/7/1 17/17/1 18/18/1
f 12/7/1 11/11/1 17/17/1
