o Default
v 0 0 0
v 1 0 -1
v 0 0 -1
v 1 0 0
v -1 0 0
v -1 0 -1
v -1 0 1
v 0 0 1
v 1 0 1
v -1 0 2
v 0 0 2
v 1 0 2
v 0 0.125 2
v -1 1.125 2
v 0 1.125 2
v -1 0.125 2
v -1 0.125 -1
v 0 1.125 -1
v -1 1.125 -1
v 0 0.125 -1
v 1 1.125 -1
v 1 0.125 -1
v 1 2.125 -1
v 0 2.125 -1
v -1 2.125 -1
v 1 0.125 1
v 0 0.125 1
v 1 0.125 2
v -1 0.125 0.75
v -1 0.125 0.5
v -1 0.375 0.75
v -1 0.375 0.875
v -1 0.6875 0.875
v -1 1.125 0.875
v -1 1.375 0.75
v -1 1.375 0.875
v -1 1.625 0.5
v -1 1.625 0.75
v -1 1.75 0.1875
v -1 1.75 0.5
v -1 1.125 1
v -1 0.125 1
v -1 2.125 1
v -1 2.125 2
v -1 2.125 0.875
v -1 0.125 0.875
v -1 2.125 0.75
v -1 2.125 0.5
v -1 1.75 -0.5
v -1 1.75 -0.1875
v -1 1.625 -0.5
v -1 2.125 -0.75
v -1 2.125 -0.5
v -1 1.625 -0.75
v -1 1.375 -0.75
v -1 2.125 -0.875
v -1 1.375 -0.875
v -1 1.125 -0.875
v -1 0.6875 -0.875
v -1 0.375 -0.75
v -1 0.375 -0.875
v -1 0.125 -0.875
v -1 0.125 -0.75
v -1 0.125 -0.5
v 1 0.125 -0.875
v 1 0.375 -0.75
v 1 0.375 -0.875
v 1 0.125 -0.75
v 1 2.125 -0.875
v 1 2.125 0.5
v 1 2.125 -0.5
v 1 1.75 0.5
v 1 1.75 -0.5
v 1 0.125 -0.5
v 1 0.6875 -0.875
v 1 1.125 -0.875
v 1 1.375 -0.75
v 1 1.375 -0.875
v 1 0.375 0.75
v 1 0.125 0.5
v 1 0.125 0.75
v 1 0.6875 0.875
v 1 0.375 0.875
v 1 1.375 0.875
v 1 1.375 0.75
v 1 1.125 0.875
v 1 1.625 0.75
v 1 1.625 0.5
v 1 1.75 0.1875
v 1 1.125 2
v 1 1.125 1
v 1 2.125 2
v 1 2.125 1
v 1 2.125 0.875
v 1 0.125 0.875
v 1 2.125 0.75
v 1 1.625 -0.5
v 1 1.75 -0.1875
v 1 1.625 -0.75
v 1 2.125 -0.75
v 0 2.125 2
v 0 0.125 0
v -1 0.125 0
v 1 0.125 0
v 1 2.125 0
v 0 2.125 0
v -1 2.125 0
v 0 2.125 1
vt 0.9375 0.6875
vt 1 0.75
vt 0.9375 0.75
vt 1 0.6875
vt 0.4375 0.5
vt 0.5 0.5625
vt 0.4375 0.5625
vt 0.5 0.5
vt 0.3125 0.5
vt 0.375 0.5625
vt 0.3125 0.5625
vt 0.375 0.5
vt 0.4375 0.625
vt 0.375 0.625
vt 0.3125 0.625
vt 0.5625 0.5625
vt 0.5625 0.5
vt 0.390625 0.5
vt 0.40625 0.5
vt 0.390625 0.515625
vt 0.3828125 0.515625
vt 0.3828124403953552 0.5351561903953552
vt 0.3828124403953552 0.5625
vt 0.3906249403953552 0.578125
vt 0.3828124403953552 0.578125
vt 0.40624988079071045 0.59375
vt 0.39062488079071045 0.59375
vt 0.42578110098838806 0.6015625
vt 0.40624985098838806 0.6015625
vt 0.3828124403953552 0.625
vt 0.37499991059303284 0.625
vt 0.3828125 0.5
vt 0.39062491059303284 0.625
vt 0.40624991059303284 0.625
vt 0.4687499701976776 0.6015624403953552
vt 0.4492187201976776 0.6015624403953552
vt 0.4687499701976776 0.5937499403953552
vt 0.4843749701976776 0.5937499403953552
vt 0.4843749701976776 0.6249999403953552
vt 0.4687499701976776 0.6249999403953552
vt 0.4843749701976776 0.5781249403953552
vt 0.4921874701976776 0.625
vt 0.49218761920928955 0.578125
vt 0.48437511920928955 0.578125
vt 0.49218761920928955 0.5625
vt 0.49218761920928955 0.5351561903953552
vt 0.4843750596046448 0.515625
vt 0.4921875596046448 0.515625
vt 0.4843750596046448 0.5
vt 0.4921875596046448 0.5
vt 0.4687500596046448 0.5
vt 0.46874988079071045 0.6249998211860657
vt 0.5 0.625
vt 0.5000000596046448 0.5
vt 0.46874985098838806 0.6015623211860657
vt 0.5625 0.625
vn 0 1 0
vn 0 0 -1
vn 0 0 1
vn 1 0 0
vn -1 0 0
vn 0 -1 0
g Util_SafeRoom
usemtl 0
f 1/1/1 2/2/1 3/3/1
f 1/1/1 4/4/1 2/2/1
f 5/1/1 3/2/1 6/3/1
f 5/1/1 1/4/1 3/2/1
f 7/1/1 1/2/1 5/3/1
f 7/1/1 8/4/1 1/2/1
f 8/1/1 4/2/1 1/3/1
f 8/1/1 9/4/1 4/2/1
f 10/1/1 8/2/1 7/3/1
f 10/1/1 11/4/1 8/2/1
f 11/1/1 9/2/1 8/3/1
f 11/1/1 12/4/1 9/2/1
f 13/5/2 14/6/2 15/7/2
f 13/5/2 16/8/2 14/6/2
f 17/9/3 18/10/3 19/11/3
f 17/9/3 20/12/3 18/10/3
f 20/12/3 21/7/3 18/10/3
f 20/12/3 22/5/3 21/7/3
f 18/10/3 23/13/3 24/14/3
f 18/10/3 21/7/3 23/13/3
f 19/11/3 24/14/3 25/15/3
f 19/11/3 18/10/3 24/14/3
f 13/16/1 26/8/1 27/17/1
f 13/16/1 28/6/1 26/8/1
f 29/18/4 30/19/4 31/20/4
f 32/21/4 31/20/4 33/22/4
f 34/23/4 35/24/4 36/25/4
f 35/24/4 37/26/4 38/27/4
f 37/26/4 39/28/4 40/29/4
f 16/9/4 41/10/4 14/11/4
f 16/9/4 42/12/4 41/10/4
f 14/11/4 43/14/4 44/15/4
f 14/11/4 41/10/4 43/14/4
f 42/12/4 45/30/4 43/31/4
f 42/12/4 46/32/4 45/30/4
f 46/32/4 31/20/4 32/21/4
f 46/32/4 29/18/4 31/20/4
f 36/25/4 47/33/4 45/30/4
f 36/25/4 35/24/4 47/33/4
f 38/27/4 48/34/4 47/33/4
f 38/27/4 37/26/4 48/34/4
f 49/35/4 50/36/4 51/37/4
f 52/38/4 53/37/4 54/39/4
f 53/37/4 51/40/4 54/39/4
f 54/38/4 51/41/4 55/37/4
f 56/42/4 52/39/4 57/43/4
f 52/39/4 55/44/4 57/43/4
f 57/43/4 55/44/4 58/45/4
f 59/46/4 60/47/4 61/48/4
f 61/47/4 60/48/4 62/49/4
f 60/48/4 63/50/4 62/49/4
f 60/47/4 64/51/4 63/49/4
f 40/29/4 53/52/4 48/34/4
f 40/29/4 49/35/4 53/52/4
f 62/50/4 25/53/4 56/42/4
f 62/50/4 17/54/4 25/53/4
f 3/3/1 6/2/1 1/1/1
f 6/2/1 5/4/1 1/1/1
f 2/3/1 3/2/1 4/1/1
f 3/2/1 1/4/1 4/1/1
f 4/3/1 1/2/1 9/1/1
f 1/2/1 8/4/1 9/1/1
f 1/3/1 5/2/1 8/1/1
f 5/2/1 7/4/1 8/1/1
f 9/3/1 8/2/1 12/1/1
f 8/2/1 11/4/1 12/1/1
f 8/3/1 7/2/1 11/1/1
f 7/2/1 10/4/1 11/1/1
f 65/49/5 66/48/5 67/47/5
f 65/49/5 68/50/5 66/48/5
f 69/42/5 23/53/5 65/50/5
f 23/53/5 22/54/5 65/50/5
f 70/34/5 71/52/5 72/29/5
f 71/52/5 73/55/5 72/29/5
f 68/49/5 74/51/5 66/47/5
f 67/48/5 66/47/5 75/46/5
f 76/45/5 77/44/5 78/43/5
f 79/20/5 80/19/5 81/18/5
f 82/22/5 79/20/5 83/21/5
f 84/25/5 85/24/5 86/23/5
f 87/27/5 88/26/5 85/24/5
f 72/29/5 89/28/5 88/26/5
f 90/11/5 91/10/5 28/9/5
f 91/10/5 26/12/5 28/9/5
f 92/15/5 93/14/5 90/11/5
f 93/14/5 91/10/5 90/11/5
f 93/31/5 94/30/5 26/12/5
f 94/30/5 95/32/5 26/12/5
f 83/21/5 79/20/5 95/32/5
f 79/20/5 81/18/5 95/32/5
f 94/30/5 96/33/5 84/25/5
f 96/33/5 85/24/5 84/25/5
f 96/33/5 70/34/5 87/27/5
f 70/34/5 88/26/5 87/27/5
f 97/37/5 98/36/5 73/55/5
f 99/39/5 71/37/5 100/38/5
f 99/39/5 97/40/5 71/37/5
f 77/37/5 97/41/5 99/38/5
f 78/43/5 100/39/5 69/42/5
f 78/43/5 77/44/5 100/39/5
f 28/9/2 15/10/2 90/11/2
f 28/9/2 13/12/2 15/10/2
f 90/11/2 101/14/2 92/15/2
f 90/11/2 15/10/2 101/14/2
f 15/7/2 44/53/2 101/13/2
f 15/7/2 14/6/2 44/53/2
f 16/16/1 27/8/1 42/17/1
f 16/16/1 13/6/1 27/8/1
f 42/16/1 102/8/1 103/17/1
f 42/16/1 27/6/1 102/8/1
f 27/16/1 104/8/1 102/17/1
f 27/16/1 26/6/1 104/8/1
f 103/16/1 20/8/1 17/17/1
f 103/16/1 102/6/1 20/8/1
f 102/16/1 22/8/1 20/17/1
f 102/16/1 104/6/1 22/8/1
f 24/6/6 105/56/6 106/53/6
f 24/6/6 23/16/6 105/56/6
f 25/6/6 106/56/6 107/53/6
f 25/6/6 24/16/6 106/56/6
f 106/6/6 93/56/6 108/53/6
f 106/6/6 105/16/6 93/56/6
f 107/6/6 108/56/6 43/53/6
f 107/6/6 106/16/6 108/56/6
f 108/6/6 92/56/6 101/53/6
f 108/6/6 93/16/6 92/56/6
f 43/6/6 101/56/6 44/53/6
f 43/6/6 108/16/6 101/56/6
