o Default
v 0.75 0.375 2
v 0.75 2.125 2
v 0.75 0.375 1
v 0.75 2.125 1
v 0.75 1.125 1
v 0.75 1.125 0
v 0.75 2.125 0
v 0.75 -1.1875 2
v 0.75 -1.1875 1
v 0.75 -2 2
v 0.75 -2 1
v 0.75 -0.4375 1
v 0.75 -0.4375 0
v 0.75 -2 0
v 0.75 -1.1875 0
v -0.75 -2 2
v -0.75 -1.1875 1
v -0.75 -1.1875 2
v -0.75 -2 1
v -0.75 -0.4375 0
v -0.75 -0.4375 1
v -0.75 -2 0
v -0.75 0.375 1
v -0.75 0.375 2
v 0 -2 1
v 1 -2 0
v 0 -2 0
v 1 -2 1
v 0.75 -0.375 0.25
v 0 -0.375 0.5
v 0.75 -0.375 0.5
v 0 -0.375 0.25
v -0.75 -0.375 0.5
v -0.75 -0.375 0.25
v 0 -0.125 0.25
v -0.75 -0.125 0.25
v 0.75 -0.125 0.25
v 0 -1.125 1
v -0.75 -1.125 1.25
v 0 -1.125 1.25
v -0.75 -1.125 1
v -0.75 1.125 0
v -0.75 1.125 1
v -0.75 2.125 1
v -0.75 3.375 2
v -0.75 2.125 2
v -0.75 3.375 1
v -0.5 3.625 2
v -0.5 3.625 1
v -0.1875 3.75 2
v -0.1875 3.75 1
v 0.1875 3.75 2
v 0.1875 3.75 1
v 0.5 3.625 2
v 0.5 3.625 1
v 0.75 3.375 2
v 0.75 3.375 1
v 0 -0.125 0
v -0.75 -0.125 0
v -0.75 2.125 0
v -0.75 3.375 0
v -0.5 3.625 0
v -0.1875 3.75 0
v 0.1875 3.75 0
v 0.75 3.375 0
v 0.5 3.625 0
v 0 -0.625 0.5
v 0.75 -0.625 0.5
v -0.75 -0.625 0.5
v 0.75 -1.125 1.25
v 0 -1.375 1.25
v 0.75 -1.375 1.25
v -0.8125 -1.375 1.5
v 0 -1.375 1.5
v -0.75 -1.375 1.25
v 0.75 -1.375 1.5
v -0.75 -1.625 1.5
v 0 -1.625 1.5
v -0.75 -1.375 1.5
v 0.75 -0.125 0
v 0.75 0.125 0
v 0 0.125 0
v 0.75 -1.125 1
v 0.75 -1.625 1.5
v -0.75 -1.625 1.75
v 0 -1.625 1.75
v 0.75 -1.625 1.75
v -1 -2 1
v -1 -2 0
v -0.75 -1.875 1.75
v 0 -1.875 1.75
v 0.75 -1.875 1.75
v 0 -1.875 2
v 0.75 -1.875 2
v -0.75 -1.875 2
v 0.75 -0.625 0.75
v 0 -0.875 0.75
v 0.75 -0.875 0.75
v 0 -0.625 0.75
v -0.75 0.125 0
v 0 -2 2
v 1 -2 2
v 0 -0.875 1
v -0.75 -0.875 1
v 0.75 -0.875 1
v -0.75 -0.875 0.75
v -1 -2 2
v -0.75 -0.625 0.75
v 0.75 1.375 -1.25
v 0 1.125 -1.25
v 0.75 1.125 -1.25
v 0 1.375 -1.25
v 0 2.125 -2
v -0.75 1.875 -2
v 0 1.875 -2
v -0.75 2.125 -2
v 0.75 1.375 -1.5
v 0 1.375 -1.5
v -0.75 1.375 -1.25
v -0.75 1.375 -1.5
v 0 1.625 -1.5
v -0.75 1.625 -1.5
v 0.75 1.625 -1.5
v -0.75 1.875 -1.75
v 0 1.875 -1.75
v 0 0 -1
v 1 0 -2
v 0 0 -2
v 1 0 -1
v 0.75 1.625 -1.75
v 0 1.625 -1.75
v -0.75 1.625 -1.75
v 0.75 1.875 -1.75
v 0 0.875 -1
v -0.75 0.875 -0.75
v 0 0.875 -0.75
v -0.75 0.875 -1
v 0.75 0.875 0
v 0.75 2.125 -1
v 0.75 0.875 -1
v -0.75 2.125 -1
v -0.75 3.375 -1
v -0.5 3.625 -1
v -0.1875 3.75 -1
v 0.1875 3.75 -1
v 0.5 3.625 -1
v 0.75 3.375 -1
v 0.75 2.125 -2
v 0.75 0.875 -2
v -0.75 0.875 -2
v -0.75 3.375 -2
v -0.5 3.625 -2
v -0.1875 3.75 -2
v 0.1875 3.75 -2
v 0.75 3.375 -2
v 0.5 3.625 -2
v -0.75 0.125 -1
v -0.75 0.875 0
v 0.75 0.125 -1
v 0.75 0.875 -0.75
v 0 0.625 -0.75
v 0.75 0.625 -0.75
v -0.75 0.625 -0.5
v 0 0.625 -0.5
v -0.75 0.625 -0.75
v 0.75 0.625 -0.5
v -0.75 0.375 -0.5
v 0 0.375 -0.5
v 0.75 1.875 -2
v 0.75 0.375 -0.5
v -0.75 0.375 -0.25
v 0 0.375 -0.25
v 0.75 0.375 -0.25
v -1 0 -1
v -1 0 -2
v -0.75 0.125 -0.25
v 0 0.125 -0.25
v 0.75 0.125 -0.25
v 0 0 0
v 1 0 0
v 0 1.125 -1
v -0.75 1.125 -1
v 0.75 1.125 -1
v -0.75 1.125 -1.25
v -1 0 0
vt 0.7501646280288696 0.37499940395355225
vt 0.6407895684242249 0.37499910593032837
vt 0.7501644492149353 0.43749940395355225
vt 0.6407894492149353 0.43749913573265076
vt 0.7071957588195801 0.31249940395355225
vt 0.6446957588195801 0.31249934434890747
vt 0.7071956992149353 0.37499940395355225
vt 0.6446956992149353 0.37499937415122986
vt 0.60546875 0.3124999403953552
vt 0.6054689288139343 0.375
vt 0.65625 0.3124998211860657
vt 0.6562501788139343 0.3749998211860657
vt 0.609375 0.3125
vt 0.609375 0.375
vt 0.70703125 0.3125
vt 0.70703125 0.375
vt 0.9375 0.6875
vt 1 0.75
vt 0.9375 0.75
vt 1 0.6875
vt 0.5 0.328125
vt 0.4531249701976776 0.31250008940696716
vt 0.4999999701976776 0.3125
vt 0.453125 0.32812508940696716
vt 0.484375 0.328125
vt 0.4374999701976776 0.31250008940696716
vt 0.4843749701976776 0.3125
vt 0.4375 0.32812508940696716
vt 0.5 0.15625
vt 0.4531249701976776 0.14062510430812836
vt 0.4999999701976776 0.140625
vt 0.453125 0.15625011920928955
vt 0.484375 0.15625
vt 0.4374999701976776 0.14062510430812836
vt 0.4843749701976776 0.140625
vt 0.4375 0.15625011920928955
vt 0.6446956992149353 0.4374995827674866
vt 0.5665705800056458 0.3749997615814209
vt 0.6446955800056458 0.3749995827674866
vt 0.5665706992149353 0.4374997615814209
vt 0.5444734692573547 0.3749997615814209
vt 0.5444735884666443 0.4374997615814209
vt 0.5234376788139343 0.37499988079071045
vt 0.5234377980232239 0.4374998211860657
vt 0.5234379768371582 0.43749988079071045
vt 0.5000001788139343 0.3749999701976776
vt 0.5000004768371582 0.4375
vt 0.5444735884666443 0.37499964237213135
vt 0.5234376788139343 0.4374995231628418
vt 0.5444734692573547 0.43749964237213135
vt 0.5234377980232239 0.3749995827674866
vt 0.5665706992149353 0.37499964237213135
vt 0.5665705800056458 0.43749964237213135
vt 0.6446956992149353 0.3749998211860657
vt 0.6446955800056458 0.4374998211860657
vt 0.5665705800056458 0.3124997615814209
vt 0.5665706992149353 0.3749997615814209
vt 0.5444734692573547 0.3124997615814209
vt 0.5444735884666443 0.3749997615814209
vt 0.5234376788139343 0.31249988079071045
vt 0.5234377980232239 0.3749998211860657
vt 0.5234379768371582 0.37499988079071045
vt 0.5000001788139343 0.3124999701976776
vt 0.5000004768371582 0.375
vt 0.5665705800056458 0.37499964237213135
vt 0.5665706992149353 0.31249964237213135
vt 0.5444734692573547 0.37499964237213135
vt 0.5444735884666443 0.31249964237213135
vt 0.5234376788139343 0.3749995231628418
vt 0.5234377980232239 0.3124995827674866
vt 0.484375 0.171875
vt 0.4374999701976776 0.15625010430812836
vt 0.4843749701976776 0.15625
vt 0.4375 0.17187511920928955
vt 0.5 0.171875
vt 0.4531249701976776 0.15625010430812836
vt 0.4999999701976776 0.15625
vt 0.453125 0.17187511920928955
vt 0.484375 0.140625
vt 0.4374999701976776 0.12500010430812836
vt 0.4843749701976776 0.125
vt 0.4375 0.14062511920928955
vt 0.5 0.1875
vt 0.4531249701976776 0.17187510430812836
vt 0.4999999701976776 0.171875
vt 0.453125 0.18750011920928955
vt 0.484375 0.1875
vt 0.4374999701976776 0.17187510430812836
vt 0.4843749701976776 0.171875
vt 0.4375 0.18750011920928955
vt 0.5 0.140625
vt 0.4531249701976776 0.12500010430812836
vt 0.4999999701976776 0.125
vt 0.453125 0.14062511920928955
vt 0.7228206992149353 0.375
vt 0.7228205800056458 0.4375
vt 0.7228206992149353 0.3124998211860657
vt 0.6446955800056458 0.37499964237213135
vt 0.7228205800056458 0.3749998211860657
vt 0.6446956992149353 0.31249964237213135
vt 0.7228206992149353 0.37499940395355225
vt 0.6446955800056458 0.3124995827674866
vt 0.7228205800056458 0.31249940395355225
vt 0.6446956992149353 0.3749995827674866
vt 0.6993831992149353 0.4375
vt 0.746258020401001 0.37499988079071045
vt 0.6993830800056458 0.375
vt 0.7462581992149353 0.43749988079071045
vt 0.6993831992149353 0.37499988079071045
vt 0.746258020401001 0.4375
vt 0.6993830800056458 0.43749988079071045
vt 0.7462581992149353 0.375
vt 0.7228206992149353 0.43749940395355225
vt 0.7228205800056458 0.37499940395355225
vn -1 0 0
vn 1 0 0
vn 0 1 0
vn 0 0 1
vn 0.70710678 -0.70710678 0
vn 0.37139068 -0.92847669 0
vn 0 -1 0
vn -0.37139068 -0.92847669 0
vn -0.70710678 -0.70710678 0
g Util_StairExtended
usemtl 0
f 1/1/1 2/2/1 3/3/1
f 2/2/1 4/4/1 3/3/1
f 5/5/1 4/6/1 6/7/1
f 4/6/1 7/8/1 6/7/1
f 8/9/1 9/10/1 10/11/1
f 9/10/1 11/12/1 10/11/1
f 12/13/1 13/14/1 11/15/1
f 13/14/1 14/16/1 11/15/1
f 1/15/1 3/16/1 8/13/1
f 3/16/1 9/14/1 8/13/1
f 5/13/1 6/14/1 12/15/1
f 6/14/1 13/16/1 12/15/1
f 14/11/1 9/10/1 15/9/1
f 14/11/1 11/12/1 9/10/1
f 16/11/2 17/10/2 18/9/2
f 16/11/2 19/12/2 17/10/2
f 19/15/2 20/14/2 21/13/2
f 19/15/2 22/16/2 20/14/2
f 18/13/2 23/16/2 24/15/2
f 18/13/2 17/14/2 23/16/2
f 25/17/3 26/18/3 27/19/3
f 25/17/3 28/20/3 26/18/3
f 29/21/3 30/22/3 31/23/3
f 29/21/3 32/24/3 30/22/3
f 32/25/3 33/26/3 30/27/3
f 32/25/3 34/28/3 33/26/3
f 35/29/4 34/30/4 32/31/4
f 35/29/4 36/32/4 34/30/4
f 37/33/4 32/34/4 29/35/4
f 37/33/4 35/36/4 32/34/4
f 38/25/3 39/26/3 40/27/3
f 38/25/3 41/28/3 39/26/3
f 21/15/2 42/14/2 43/13/2
f 21/15/2 20/16/2 42/14/2
f 44/37/2 45/38/2 46/39/2
f 44/37/2 47/40/2 45/38/2
f 47/40/5 48/41/5 45/38/5
f 47/40/5 49/42/5 48/41/5
f 49/42/6 50/43/6 48/41/6
f 49/42/6 51/44/6 50/43/6
f 51/45/7 52/46/7 50/43/7
f 51/45/7 53/47/7 52/46/7
f 54/48/8 53/49/8 55/50/8
f 54/48/8 52/51/8 53/49/8
f 56/52/9 55/50/9 57/53/9
f 56/52/9 54/48/9 55/50/9
f 2/54/1 57/53/1 4/55/1
f 2/54/1 56/52/1 57/53/1
f 58/25/3 36/26/3 35/27/3
f 58/25/3 59/28/3 36/26/3
f 42/7/2 44/6/2 43/5/2
f 42/7/2 60/8/2 44/6/2
f 60/8/2 47/56/2 44/6/2
f 60/8/2 61/57/2 47/56/2
f 61/57/5 49/58/5 47/56/5
f 61/57/5 62/59/5 49/58/5
f 62/59/6 51/60/6 49/58/6
f 62/59/6 63/61/6 51/60/6
f 63/62/7 53/63/7 51/60/7
f 63/62/7 64/64/7 53/63/7
f 4/6/1 65/65/1 7/8/1
f 4/6/1 57/66/1 65/65/1
f 57/66/9 66/67/9 65/65/9
f 57/66/9 55/68/9 66/67/9
f 55/68/8 64/69/8 66/67/8
f 55/68/8 53/70/8 64/69/8
f 31/71/4 67/72/4 68/73/4
f 31/71/4 30/74/4 67/72/4
f 30/75/4 69/76/4 67/77/4
f 30/75/4 33/78/4 69/76/4
f 23/3/2 46/2/2 24/1/2
f 23/3/2 44/4/2 46/2/2
f 70/33/4 71/34/4 72/35/4
f 70/33/4 40/36/4 71/34/4
f 71/25/3 73/26/3 74/27/3
f 71/25/3 75/28/3 73/26/3
f 72/21/3 74/22/3 76/23/3
f 72/21/3 71/24/3 74/22/3
f 74/75/4 77/76/4 78/77/4
f 74/75/4 79/78/4 77/76/4
f 80/21/3 35/22/3 37/23/3
f 80/21/3 58/24/3 35/22/3
f 81/79/4 58/80/4 80/81/4
f 81/79/4 82/82/4 58/80/4
f 83/21/3 40/22/3 70/23/3
f 83/21/3 38/24/3 40/22/3
f 76/71/4 78/72/4 84/73/4
f 76/71/4 74/74/4 78/72/4
f 78/25/3 85/26/3 86/27/3
f 78/25/3 77/28/3 85/26/3
f 84/21/3 86/22/3 87/23/3
f 84/21/3 78/24/3 86/22/3
f 88/17/3 27/18/3 89/19/3
f 88/17/3 25/20/3 27/18/3
f 86/83/4 90/84/4 91/85/4
f 86/83/4 85/86/4 90/84/4
f 87/87/4 91/88/4 92/89/4
f 87/87/4 86/90/4 91/88/4
f 92/21/3 93/22/3 94/23/3
f 92/21/3 91/24/3 93/22/3
f 91/25/3 95/26/3 93/27/3
f 91/25/3 90/28/3 95/26/3
f 96/79/4 97/80/4 98/81/4
f 96/79/4 99/82/4 97/80/4
f 82/91/4 59/92/4 58/93/4
f 82/91/4 100/94/4 59/92/4
f 101/17/3 28/18/3 25/19/3
f 101/17/3 102/20/3 28/18/3
f 40/29/4 75/30/4 71/31/4
f 40/29/4 39/32/4 75/30/4
f 103/91/4 41/92/4 38/93/4
f 103/91/4 104/94/4 41/92/4
f 105/79/4 38/80/4 83/81/4
f 105/79/4 103/82/4 38/80/4
f 98/21/3 103/22/3 105/23/3
f 98/21/3 97/24/3 103/22/3
f 97/25/3 104/26/3 103/27/3
f 97/25/3 106/28/3 104/26/3
f 107/17/3 25/18/3 88/19/3
f 107/17/3 101/20/3 25/18/3
f 99/91/4 106/92/4 97/93/4
f 99/91/4 108/94/4 106/92/4
f 109/79/4 110/80/4 111/81/4
f 109/79/4 112/82/4 110/80/4
f 113/91/4 114/92/4 115/93/4
f 113/91/4 116/94/4 114/92/4
f 117/21/3 112/22/3 109/23/3
f 117/21/3 118/24/3 112/22/3
f 118/25/3 119/26/3 112/27/3
f 118/25/3 120/28/3 119/26/3
f 121/75/4 120/76/4 118/77/4
f 121/75/4 122/78/4 120/76/4
f 123/71/4 118/72/4 117/73/4
f 123/71/4 121/74/4 118/72/4
f 115/25/3 124/26/3 125/27/3
f 115/25/3 114/28/3 124/26/3
f 126/17/3 127/18/3 128/19/3
f 126/17/3 129/20/3 127/18/3
f 130/21/3 121/22/3 123/23/3
f 130/21/3 131/24/3 121/22/3
f 131/25/3 122/26/3 121/27/3
f 131/25/3 132/28/3 122/26/3
f 125/29/4 132/30/4 131/31/4
f 125/29/4 124/32/4 132/30/4
f 133/33/4 131/34/4 130/35/4
f 133/33/4 125/36/4 131/34/4
f 134/25/3 135/26/3 136/27/3
f 134/25/3 137/28/3 135/26/3
f 138/95/1 139/55/1 140/96/1
f 138/95/1 7/8/1 139/55/1
f 141/37/2 61/57/2 60/8/2
f 141/37/2 142/40/2 61/57/2
f 142/40/5 62/59/5 61/57/5
f 142/40/5 143/42/5 62/59/5
f 143/42/6 63/61/6 62/59/6
f 143/42/6 144/44/6 63/61/6
f 144/45/7 64/46/7 63/62/7
f 144/45/7 145/47/7 64/46/7
f 66/67/8 145/49/8 146/50/8
f 66/67/8 64/69/8 145/49/8
f 65/65/9 146/50/9 147/53/9
f 65/65/9 66/67/9 146/50/9
f 7/8/1 147/53/1 139/55/1
f 7/8/1 65/65/1 147/53/1
f 140/97/1 148/98/1 149/99/1
f 140/97/1 139/100/1 148/98/1
f 150/101/2 141/102/2 137/103/2
f 150/101/2 116/104/2 141/102/2
f 116/104/2 142/56/2 141/102/2
f 116/104/2 151/57/2 142/56/2
f 151/57/5 143/58/5 142/56/5
f 151/57/5 152/59/5 143/58/5
f 152/59/6 144/60/6 143/58/6
f 152/59/6 153/61/6 144/60/6
f 153/62/7 145/63/7 144/60/7
f 153/62/7 154/64/7 145/63/7
f 139/100/1 155/65/1 148/98/1
f 139/100/1 147/66/1 155/65/1
f 147/66/9 156/67/9 155/65/9
f 147/66/9 146/68/9 156/67/9
f 146/68/8 154/69/8 156/67/8
f 146/68/8 145/70/8 154/69/8
f 157/105/2 158/106/2 100/107/2
f 157/105/2 137/108/2 158/106/2
f 81/109/1 140/110/1 159/111/1
f 81/109/1 138/112/1 140/110/1
f 137/113/2 60/8/2 158/114/2
f 137/113/2 141/37/2 60/8/2
f 160/33/4 161/34/4 162/35/4
f 160/33/4 136/36/4 161/34/4
f 161/25/3 163/26/3 164/27/3
f 161/25/3 165/28/3 163/26/3
f 162/21/3 164/22/3 166/23/3
f 162/21/3 161/24/3 164/22/3
f 164/75/4 167/76/4 168/77/4
f 164/75/4 163/78/4 167/76/4
f 169/21/3 125/22/3 133/23/3
f 169/21/3 115/24/3 125/22/3
f 148/79/4 115/80/4 169/81/4
f 148/79/4 113/82/4 115/80/4
f 140/21/3 136/22/3 160/23/3
f 140/21/3 134/24/3 136/22/3
f 166/71/4 168/72/4 170/73/4
f 166/71/4 164/74/4 168/72/4
f 168/25/3 171/26/3 172/27/3
f 168/25/3 167/28/3 171/26/3
f 170/21/3 172/22/3 173/23/3
f 170/21/3 168/24/3 172/22/3
f 174/17/3 128/18/3 175/19/3
f 174/17/3 126/20/3 128/18/3
f 172/83/4 176/84/4 177/85/4
f 172/83/4 171/86/4 176/84/4
f 173/87/4 177/88/4 178/89/4
f 173/87/4 172/90/4 177/88/4
f 178/21/3 82/22/3 81/23/3
f 178/21/3 177/24/3 82/22/3
f 177/25/3 100/26/3 82/27/3
f 177/25/3 176/28/3 100/26/3
f 68/21/3 99/22/3 96/23/3
f 68/21/3 67/24/3 99/22/3
f 67/25/3 108/26/3 99/27/3
f 67/25/3 69/28/3 108/26/3
f 179/17/3 129/18/3 126/19/3
f 179/17/3 180/20/3 129/18/3
f 136/29/4 165/30/4 161/31/4
f 136/29/4 135/32/4 165/30/4
f 181/91/4 137/92/4 134/93/4
f 181/91/4 182/94/4 137/92/4
f 183/79/4 134/80/4 140/81/4
f 183/79/4 181/82/4 134/80/4
f 111/21/3 181/22/3 183/23/3
f 111/21/3 110/24/3 181/22/3
f 110/25/3 182/26/3 181/27/3
f 110/25/3 184/28/3 182/26/3
f 185/17/3 126/18/3 174/19/3
f 185/17/3 179/20/3 126/18/3
f 112/91/4 184/92/4 110/93/4
f 112/91/4 119/94/4 184/92/4
