o Default
v -0.75 0.125 0
v -0.75 1.6875 -1
v -0.75 1.6875 0
v -0.75 0.125 -1
v -0.75 3.25 -1
v -0.75 3.25 0
v -1 0.9375 -1.25
v -0.75 0.9375 -1
v -1 0.125 -1.25
v -1 2.5 -1.25
v -0.75 2.5 -1
vt 0.70703125 0.3125
vt 0.609375 0.375
vt 0.609375 0.3125
vt 0.70703125 0.375
vt 0.65625 0.3124998211860657
vt 0.6054689288139343 0.375
vt 0.60546875 0.3124999403953552
vt 0.6562501788139343 0.3749998211860657
vn 1 0 0
vn 0.70710678 0 -0.70710678
g Util_WallRightCurves
usemtl 0
f 1/1/1 2/2/1 3/3/1
f 1/1/1 4/4/1 2/2/1
f 3/1/1 5/2/1 6/3/1
f 3/1/1 2/4/1 5/2/1
f 4/5/2 7/6/2 8/7/2
f 4/5/2 9/8/2 7/6/2
f 8/3/2 10/4/2 11/1/2
f 8/3/2 7/2/2 10/4/2
