o Default
v -0.75 1.375 1
v -0.5 1.625 1
v -0.75 1.625 1
v -0.75 1.75 1
v -0.5 1.75 1
v -0.1875 1.75 1
v 0.75 1.75 1
v 0.5 1.75 1
v 0.75 1.625 1
v 0.5 1.625 1
v 0.1875 1.75 1
v 0.75 1.375 1
v 0.75 2.125 1
v -0.75 2.125 1
vt 0.7028921246528625 0.3005167841911316
vt 0.6872670650482178 0.31614166498184204
vt 0.6872671246528625 0.30051666498184204
vt 0.6794546246528625 0.30051660537719727
vt 0.6794545650482178 0.31614160537719727
vt 0.6794544458389282 0.33567285537719727
vt 0.6794549822807312 0.39426660537719727
vt 0.679455041885376 0.37864160537719727
vt 0.6872674822807312 0.39426666498184204
vt 0.687267541885376 0.37864166498184204
vt 0.6794551610946655 0.35911035537719727
vt 0.7028924822807312 0.3942667245864868
vt 0.6560174822807312 0.3942667245864868
vt 0.6560171246528625 0.3005167245864868
vn 0 0 1
g Util_DoorwayAbove
usemtl 0
f 1/1/1 2/2/1 3/3/1
f 3/3/1 2/2/1 4/4/1
f 2/2/1 5/5/1 4/4/1
f 2/2/1 6/6/1 5/5/1
f 7/7/1 8/8/1 9/9/1
f 8/8/1 10/10/1 9/9/1
f 8/8/1 11/11/1 10/10/1
f 9/9/1 10/10/1 12/12/1
f 13/13/1 14/14/1 7/7/1
f 14/14/1 4/4/1 7/7/1
