o Default
v 0.4375 2.25 -1.875
v 1.0625 2.25 -2
v 1.0625 2.25 -1.875
v 0.4375 2.25 -2
v 0.75 1.125 -2
v 1.75 1.125 -2
v 1.75 1.125 -3
v 0.25 2.75 -2
v 0.25 2.75 -3
v 0.5625 2.875 -3
v 0 2.5 -2
v 0.25 2.75 -1
v 0 2.5 -1
v 0.65625 2.75 -3
v 0.65625 2.75 -2
v 0.65625 2.875 -2
v 1.03125 2.75 -3
v 1.03125 2.75 -2
v 1.03125 2.84375 -2
v 1.5 1.25 -2
v 0.75 1.25 -1
v 1.5 1.25 -1
v 0.75 1.25 -2
v 0.40625 2.75 -3
v 0.40625 2.8125 -2
v 0.40625 2.8125 -3
v 0.40625 2.75 -2
v 0 2.5 -3
v 0.5625 2.875 -2
v 0.9375 2.875 -3
v 1.25 1.25 -3
v 0.25 1.25 -3
v 0.25 1.25 -2
v 1.0625 1.25 -2
v 1.0625 1.25 -1.875
v 0.84375 2.875 -3
v 0.65625 2.875 -3
v 0.84375 2.75 -3
v 1.5 1.5 -1.875
v 1.0625 1.5 -1.875
v 1.5 1.25 -1.875
v 0.5625 2.875 -1
v 1.09375 2.75 -2
v 1.09375 2.8125 -3
v 1.09375 2.8125 -2
v 1.09375 2.75 -3
v 0 1.25 -1
v 0 1.25 -2
v 1.25 2.75 -1.875
v 0.9375 2.875 -1.875
v 0.9375 2.75 -1.875
v 1.03125 2.84375 -3
v 0.84375 2.75 -2
v 0.84375 2.875 -2
v 0.4375 1.25 -1.875
v 0.4375 1.25 -2
v 1.625 2.25 -1.875
v 1.5 2.25 -1.875
v 1.625 1.8125 -1.875
v 1.5 1.8125 -1.875
v 1.5 2.5 -1.875
v 1.25 2.5 -1.875
v 0.46875 2.75 -2
v 0.46875 2.84375 -3
v 0.46875 2.84375 -2
v 0.46875 2.75 -3
v 0.9375 2.875 -2
v 0 1.5 -1.875
v 0 1.8125 -1.875
v -0.125 1.8125 -1.875
v 0.25 2.25 -1.875
v 0.25 2.75 -1.875
v 1.25 2.25 -1.875
v 0 2.25 -1.875
v -0.125 2.25 -1.875
v 1.25 1.25 -2
v 0.25 2.5 -1.875
v 0 2.5 -1.875
v 1.5 1.5 -3
v 1.625 1.8125 -2
v 1.625 1.8125 -3
v 1.25 2.75 -3
v 1.25 2.75 -2
v 1.5 2.5 -3
v 1.5 2.5 -2
v 1.625 2.25 -3
v 1.625 2.25 -2
v -0.125 2.25 -2
v -0.125 2.25 -3
v -0.125 1.8125 -2
v -0.125 1.8125 -3
v 0 1.5 -2
v 0 1.5 -3
v -0.25 1.125 -1
v -0.25 1.125 -2
v 0.75 1.125 -1
v 1.5 1.5 -2
v 0.75 1.125 -3
v -0.25 1.125 -3
v 1.75 1.125 -1
v 0.5625 2.75 -1.875
v 0.5625 2.875 -1.875
v 0.9375 2.875 -1
v 1.25 1.5 -2
v 1.5 1.8125 -2
v 1.5 2.25 -2
v 1.25 2.5 -2
v 0.9375 2.75 -2
v 0.5625 2.75 -2
v 1.0625 1.5 -2
v 1.25 2.25 -2
v 0.25 2.25 -2
v 0.25 1.5 -2
v 0.4375 1.5 -2
v 0 2.25 -2
v 0 1.8125 -2
v 0.25 2.5 -2
v 0 1.25 -1.875
v 0.4375 1.5 -1.875
v 1.25 2.75 -1
v 1.5 2.5 -1
vt 0.8971348404884338 0.6560669541358948
vt 0.8893222212791443 0.69512939453125
vt 0.8971347212791443 0.6951294541358948
vt 0.8893223404884338 0.6560669541358948
vt 0.9375 0.6875
vt 1 0.6875
vt 1 0.75
vt 0.8125 0.9375
vt 0.8125 0.875
vt 0.7916660308837891 0.875
vt 0.5665706992149353 0.4374997615814209
vt 0.5444734692573547 0.3749997615814209
vt 0.5665705800056458 0.3749997615814209
vt 0.5444735884666443 0.4374997615814209
vt 0.63671875 1
vt 0.63671875 0.9375
vt 0.6484375 0.9375
vt 0.6875 0.875
vt 0.6875 0.9375
vt 0.6796875 0.9375
vt 0.484375 0.37500011920928955
vt 0.4375001788139343 0.3124999701976776
vt 0.4843751788139343 0.31250011920928955
vt 0.4375 0.375
vt 0.6796875 0.875
vt 0.8333339691162109 0.9375
vt 0.8333339691162109 0.875
vt 0.734375 0.9375
vt 0.734375 1
vt 0.6875 1
vt 1 1
vt 0.9375 1
vt 0.9375 0.9375
vt 0.9166660308837891 0.67559814453125
vt 0.8541660904884338 0.6834108829498291
vt 0.8541660308837891 0.6755984425544739
vt 0.9166660904884338 0.68341064453125
vt 0.66796875 0.92578125
vt 0.66796875 0.9375
vt 0.6484375 0.92578125
vt 0.6666662693023682 0.3923951983451843
vt 0.6666661500930786 0.3650515079498291
vt 0.6822913289070129 0.39239513874053955
vt 0.6822911500930786 0.36505138874053955
vt 0.5234376788139343 0.37499988079071045
vt 0.5234377980232239 0.4374998211860657
vt 0.4375001788139343 0.3124998211860657
vt 0.484375 0.375
vt 0.4375 0.3749998211860657
vt 0.4843751788139343 0.3124999403953552
vt 0.5885411500930786 0.37677001953125
vt 0.5807287096977234 0.35723876953125
vt 0.5885412096977234 0.35723876953125
vt 0.66796875 1
vt 0.6796875 1
vt 0.6197912096977234 0.39239513874053955
vt 0.6197911500930786 0.40020763874053955
vt 0.6471349596977234 0.3923952579498291
vt 0.6471349000930786 0.4002077579498291
vt 0.6041661500930786 0.3923952579498291
vt 0.6041662096977234 0.3767701983451843
vt 0.6666661500930786 0.2986452579498291
vt 0.6471349000930786 0.29864513874053955
vt 0.6471349596977234 0.29083263874053955
vt 0.6197912096977234 0.31427001953125
vt 0.5885412096977234 0.31427001953125
vt 0.6197912096977234 0.37677001953125
vt 0.6197911500930786 0.29864501953125
vt 0.6197912096977234 0.29083251953125
vt 1 0.9375
vt 0.6041662096977234 0.3142700791358948
vt 0.6041661500930786 0.2986450791358948
vt 0.6197910308837891 0.39239501953125
vt 0.6197911500930786 0.36505126953125
vt 0.9166660308837891 1
vt 0.8958339691162109 0.9375
vt 0.8958339691162109 1
vt 0.7916660308837891 0.9375
vt 0.8333339691162109 1
vt 0.8125 1
vt 0.8541660308837891 1
vt 0.8541660308837891 0.9375
vt 0.8541660308837891 0.93731689453125
vt 0.8958339691162109 0.99981689453125
vt 0.8958339691162109 0.93731689453125
vt 0.854095458984375 1
vt 0.6471349596977234 0.40020763874053955
vt 0.6471349000930786 0.39239513874053955
vt 0.8541660308837891 0.875
vt 0.8541660308837891 0.87481689453125
vt 0.8958339691162109 0.87481689453125
vt 0.854095458984375 0.9375
vt 0.9166660308837891 0.9375
vt 0.8958339691162109 0.875
vt 0.9166660308837891 0.875
vt 0.9375 0.75
vt 0.6484375 1
vt 0.915402889251709 0.9375
vt 0.9375 0.875
vt 0.6446956992149353 0.4374995827674866
vt 0.6446955800056458 0.3749995827674866
vt 0.5885413289070129 0.33380126953125
vt 0.5807288289070129 0.33380126953125
vt 0.6197911500930786 0.4002077579498291
vt 0.5234379768371582 0.43749988079071045
vt 0.5000001788139343 0.3749999701976776
vt 0.5000004768371582 0.4375
vt 0.9166661500930786 0.6638796329498291
vt 0.9010411500930786 0.6638796329498291
vt 0.9010411500930786 0.6482546329498291
vt 0.8815099000930786 0.6482545137405396
vt 0.8815099596977234 0.6404420137405396
vt 0.8541661500930786 0.64825439453125
vt 0.8385411500930786 0.6482544541358948
vt 0.8541661500930786 0.64044189453125
vt 0.8385412096977234 0.6638794541358948
vt 0.8229162096977234 0.6638795137405396
vt 0.8229163289070129 0.68341064453125
vt 0.8151038289070129 0.68341064453125
vt 0.8229161500930786 0.72637939453125
vt 0.8151037096977234 0.70684814453125
vt 0.8229162096977234 0.70684814453125
vt 0.9010411500930786 0.6755983829498291
vt 0.9166661500930786 0.6755983829498291
vt 0.8541662096977234 0.66387939453125
vt 0.8541662096977234 0.72637939453125
vt 0.8541661500930786 0.6755983829498291
vt 0.9010411500930786 0.67559814453125
vt 0.9166661500930786 0.71466064453125
vt 0.9166661500930786 0.72637939453125
vt 0.9010411500930786 0.71466064453125
vt 0.9010411500930786 0.72637939453125
vt 0.8541660308837891 0.74200439453125
vt 0.8541661500930786 0.71466064453125
vt 0.9010410308837891 0.7420046329498291
vt 0.9010411500930786 0.7146608829498291
vt 0.8815099596977234 0.7498170137405396
vt 0.8815099000930786 0.7420045137405396
vt 0.8541662096977234 0.7420045137405396
vt 0.8541661500930786 0.7498170137405396
vt 0.8815099596977234 0.7420046329498291
vt 0.8815099000930786 0.7498171329498291
vt 0.8385412096977234 0.7420046329498291
vt 0.8385411500930786 0.7263795733451843
vt 0.8541661500930786 0.7498171329498291
vt 0.6822910308837891 0.2986449599266052
vt 0.6666661500930786 0.32598876953125
vt 0.6822912096977234 0.3259887099266052
vt 0.6197911500930786 0.3259890079498291
vt 0.5444735884666443 0.37499964237213135
vt 0.5234376788139343 0.4374995231628418
vt 0.5444734692573547 0.43749964237213135
vt 0.5234377980232239 0.3749995827674866
vt 0.5665706992149353 0.37499964237213135
vt 0.5665705800056458 0.43749964237213135
vt 0.6446956992149353 0.3749998211860657
vt 0.6446955800056458 0.4374998211860657
vn 0 -1 0
vn 0 1 0
vn 0.37139068 -0.92847669 0
vn 0.70710678 -0.70710678 0
vn -1 0 0
vn 0 0 -1
vn 0 0 1
vn 1 0 0
vn -0.92847669 0.37139068 0
vn -0.37139068 -0.92847669 0
vn -0.70710678 -0.70710678 0
vn -0.89442719 -0.4472136 0
vn 0.89442719 -0.4472136 0
vn 0.92847669 0.37139068 0
vn -0.70710678 0.70710678 0
vn 0.70710678 0.70710678 0
g Tunnel_Doorway
usemtl 0
f 1/1/1 2/2/1 3/3/1
f 1/1/1 4/4/1 2/2/1
f 5/5/2 6/6/2 7/7/2
f 8/8/3 9/9/3 10/10/3
f 11/11/4 12/12/4 13/13/4
f 11/11/4 8/14/4 12/12/4
f 14/15/5 15/16/5 16/17/5
f 17/18/5 18/19/5 19/20/5
f 20/21/2 21/22/2 22/23/2
f 20/21/2 23/24/2 21/22/2
f 24/18/5 25/20/5 26/25/5
f 24/18/5 27/19/5 25/20/5
f 11/26/4 9/9/4 8/8/4
f 11/26/4 28/27/4 9/9/4
f 29/28/1 10/29/1 30/30/1
f 31/31/2 32/32/2 33/33/2
f 34/34/5 3/35/5 2/36/5
f 34/34/5 35/37/5 3/35/5
f 24/18/5 27/19/5 25/20/5
f 36/17/6 14/38/6 37/39/6
f 36/17/6 38/40/6 14/38/6
f 39/41/7 40/42/7 41/43/7
f 40/42/7 35/44/7 41/43/7
f 8/14/3 42/45/3 12/12/3
f 8/14/3 29/46/3 42/45/3
f 43/18/8 44/20/8 45/25/8
f 43/18/8 46/19/8 44/20/8
f 23/47/2 47/48/2 21/49/2
f 23/47/2 48/50/2 47/48/2
f 49/51/7 50/52/7 51/53/7
f 43/19/1 17/25/1 46/18/1
f 43/19/1 18/20/1 17/25/1
f 17/18/5 19/20/5 52/25/5
f 53/54/8 38/39/8 36/20/8
f 53/54/8 36/20/8 54/55/8
f 55/34/8 4/35/8 1/36/8
f 55/34/8 56/37/8 4/35/8
f 57/56/7 58/57/7 59/58/7
f 58/57/7 60/59/7 59/58/7
f 61/60/7 49/51/7 62/61/7
f 63/18/8 64/20/8 65/25/8
f 63/18/8 66/19/8 64/20/8
f 24/18/5 25/20/5 26/25/5
f 24/18/5 27/19/5 25/20/5
f 29/28/1 30/30/1 67/19/1
f 68/62/7 69/63/7 70/64/7
f 71/65/7 49/51/7 72/66/7
f 71/65/7 73/67/7 49/51/7
f 70/64/7 74/68/7 75/69/7
f 70/64/7 69/63/7 74/68/7
f 63/19/1 24/25/1 66/18/1
f 63/19/1 27/20/1 24/25/1
f 24/18/5 25/20/5 26/25/5
f 31/31/2 33/33/2 76/70/2
f 43/19/1 17/25/1 46/18/1
f 43/19/1 18/20/1 17/25/1
f 43/18/8 44/20/8 45/25/8
f 43/18/8 46/19/8 44/20/8
f 17/18/5 19/20/5 52/25/5
f 17/18/5 18/19/5 19/20/5
f 77/71/7 72/66/7 78/72/7
f 43/19/1 17/25/1 46/18/1
f 43/19/1 18/20/1 17/25/1
f 58/73/7 3/74/7 39/41/7
f 3/74/7 40/42/7 39/41/7
f 61/60/7 62/61/7 58/73/7
f 62/61/7 73/67/7 58/73/7
f 17/18/5 18/19/5 19/20/5
f 63/18/8 64/20/8 65/25/8
f 29/28/1 10/29/1 30/30/1
f 63/18/8 66/19/8 64/20/8
f 17/18/5 19/20/5 52/25/5
f 63/18/8 64/20/8 65/25/8
f 43/19/1 18/20/1 17/25/1
f 43/18/8 46/19/8 44/20/8
f 43/18/8 44/20/8 45/25/8
f 79/75/9 80/76/9 81/77/9
f 29/28/1 30/30/1 67/19/1
f 82/8/10 67/10/10 30/78/10
f 82/8/10 83/9/10 67/10/10
f 84/79/11 83/8/11 82/80/11
f 84/79/11 85/26/11 83/8/11
f 86/81/12 85/26/12 84/79/12
f 86/81/12 87/82/12 85/26/12
f 87/83/5 81/84/5 80/85/5
f 87/83/5 86/86/5 81/84/5
f 59/87/7 60/88/7 39/41/7
f 63/18/8 66/19/8 64/20/8
f 88/82/13 28/27/13 11/26/13
f 88/82/13 89/89/13 28/27/13
f 89/90/8 90/85/8 91/91/8
f 89/90/8 88/92/8 90/85/8
f 29/28/1 30/30/1 67/19/1
f 29/28/1 10/29/1 30/30/1
f 43/18/8 44/20/8 45/25/8
f 63/19/1 24/25/1 66/18/1
f 92/93/14 91/94/14 90/76/14
f 92/93/14 93/95/14 91/94/14
f 63/19/1 24/25/1 66/18/1
f 43/19/1 17/25/1 46/18/1
f 94/5/2 5/7/2 95/96/2
f 94/5/2 96/6/2 5/7/2
f 17/18/5 19/20/5 52/25/5
f 79/75/9 97/93/9 80/76/9
f 15/97/1 14/17/1 38/39/1
f 31/32/15 97/93/15 79/75/15
f 31/32/15 76/33/15 97/98/15
f 24/18/5 25/20/5 26/25/5
f 24/18/5 27/19/5 25/20/5
f 95/5/2 98/7/2 99/96/2
f 95/5/2 5/6/2 98/7/2
f 96/5/2 6/7/2 5/96/2
f 96/5/2 100/6/2 6/7/2
f 8/8/3 10/10/3 29/78/3
f 33/33/16 93/95/16 92/93/16
f 33/33/16 32/99/16 93/95/16
f 48/100/8 13/13/8 47/101/8
f 48/100/8 11/11/8 13/13/8
f 29/28/1 10/29/1 30/30/1
f 63/19/1 24/25/1 66/18/1
f 101/102/7 102/103/7 72/66/7
f 74/68/7 78/72/7 75/69/7
f 57/104/7 61/60/7 58/73/7
f 101/102/7 50/52/7 102/103/7
f 101/102/7 51/53/7 50/52/7
f 74/68/7 77/71/7 78/72/7
f 74/68/7 71/65/7 77/71/7
f 43/18/8 46/19/8 44/20/8
f 63/19/1 27/20/1 24/25/1
f 63/19/1 27/20/1 24/25/1
f 29/28/1 30/30/1 67/19/1
f 14/15/5 16/17/5 37/97/5
f 63/18/8 64/20/8 65/25/8
f 17/18/5 18/19/5 19/20/5
f 63/19/1 27/20/1 24/25/1
f 15/97/1 38/39/1 53/54/1
f 5/5/2 7/7/2 98/96/2
f 63/18/8 66/19/8 64/20/8
f 29/105/1 103/106/1 42/45/1
f 29/105/1 67/107/1 103/106/1
f 16/17/7 15/40/7 53/38/7
f 16/17/7 53/38/7 54/39/7
f 76/108/6 104/109/6 97/110/6
f 97/110/6 105/111/6 80/112/6
f 106/113/6 85/114/6 87/115/6
f 107/116/6 83/117/6 85/114/6
f 108/118/6 67/119/6 83/117/6
f 8/120/6 29/121/6 109/122/6
f 76/123/6 110/108/6 104/124/6
f 76/123/6 34/109/6 110/108/6
f 111/125/6 8/120/6 83/117/6
f 111/125/6 112/126/6 8/120/6
f 80/112/6 106/113/6 87/115/6
f 80/112/6 105/111/6 106/113/6
f 97/110/6 2/127/6 106/113/6
f 97/110/6 110/128/6 2/127/6
f 106/113/6 107/116/6 85/114/6
f 106/113/6 111/125/6 107/116/6
f 108/118/6 29/121/6 67/119/6
f 108/118/6 109/122/6 29/121/6
f 113/129/6 114/130/6 33/131/6
f 114/130/6 56/132/6 33/131/6
f 115/133/6 4/134/6 92/135/6
f 4/134/6 114/136/6 92/135/6
f 92/135/6 113/132/6 33/130/6
f 90/137/6 116/138/6 92/135/6
f 88/139/6 115/140/6 90/141/6
f 115/140/6 116/142/6 90/141/6
f 11/143/6 117/144/6 115/133/6
f 117/144/6 112/126/6 115/133/6
f 88/145/6 11/143/6 115/133/6
f 11/143/6 8/120/6 117/144/6
f 118/146/7 119/147/7 68/62/7
f 118/146/7 55/148/7 119/147/7
f 68/62/7 1/149/7 74/68/7
f 68/62/7 119/147/7 1/149/7
f 120/150/10 67/151/10 83/152/10
f 120/150/10 103/153/10 67/151/10
f 121/154/11 83/152/11 85/155/11
f 121/154/11 120/150/11 83/152/11
f 22/156/5 85/155/5 20/157/5
f 22/156/5 121/154/5 85/155/5
