o Default
v -0.1875 0 0
v -0.25 0 0
v -0.1875 0 0.53125
v -0.25 0 0.53125
v -0.25 0 -0.53125
v -0.3125 0 -0.53125
v -0.3125 0 0
v -0.1875 0 -0.53125
v 0.3125 0 0
v 0.25 0 0
v 0.3125 0 0.53125
v 0.25 0 0.53125
v 0.25 0 -0.53125
v 0.1875 0 -0.53125
v 0.1875 0 0
v 0.3125 0 -0.53125
v -0.12499889731407166 -0.625 0.46875
v 5.066394805908203e-7 -0.625 0.46875
v -0.12499889731407166 -0.5 0.46875
v 5.066394805908203e-7 -0.5 0.46875
v 5.066394805908203e-7 -0.75 0.40625
v 0.12499991059303284 -0.625 0.40625
v -0.12499889731407166 -0.75 0.40625
v -0.2499985694885254 -0.625 0.40625
v -0.2499985694885254 -0.5 0.40625
v -0.12499889731407166 -0.375 0.40625
v 5.066394805908203e-7 -0.375 0.40625
v 0.12499991059303284 -0.5 0.40625
v -0.4375 -0.6875 0.53125
v -0.3125 -0.8125 0.40625
v -0.4375 -0.8125 0.40625
v -0.3125 -0.6875 0.53125
v -0.4375 -0.8125 0.65625
v -0.3125 -0.125 0.65625
v -0.4375 -0.125 0.65625
v -0.3125 -0.8125 0.65625
v -0.4375 -0.9375 -0.53125
v -0.3125 -0.9375 0.53125
v -0.4375 -0.9375 0.53125
v -0.3125 -0.9375 -0.53125
v -0.3125 -0.8125 0.53125
v -0.4375 -0.125 0.53125
v -0.3125 -0.125 0.53125
v -0.4375 -0.8125 0.53125
v -0.3125 -0.8125 -0.53125
v -0.3125 -0.8125 -0.65625
v -0.4375 -0.125 -0.65625
v -0.3125 -0.125 -0.65625
v -0.4375 -0.8125 -0.65625
v -0.4375 -0.8125 -0.53125
v -0.4375 -0.6875 -0.53125
v -0.4375 -0.8125 -0.40625
v -0.4375 -0.125 -0.53125
v -0.3125 -0.6875 -0.53125
v -0.3125 -0.8125 -0.40625
v -0.3125 -0.125 -0.53125
v -0.3125 0 0.53125
v -0.3125 -0.25 0.53125
v -0.1875 -0.125 0.53125
v -0.1875 -0.125 0.65625
v -0.3125 -0.25 0.65625
v -0.3125 0 0.65625
v -0.3125 0 -0.65625
v -0.3125 -0.25 -0.65625
v -0.1875 -0.125 -0.65625
v -0.1875 -0.125 -0.53125
v -0.3125 -0.25 -0.53125
v 0.4375 -0.8125 0.40625
v 0.3125 -0.8125 0.40625
v 0.4375 -0.6875 0.53125
v 0.3125 -0.6875 0.53125
v 0.4375 -0.125 0.65625
v 0.3125 -0.125 0.65625
v 0.4375 -0.8125 0.65625
v 0.3125 -0.8125 0.65625
v 0.4375 -0.9375 0.53125
v 0.3125 -0.9375 0.53125
v 0.4375 -0.9375 -0.53125
v 0.3125 -0.9375 -0.53125
v 0.3125 -0.125 0.53125
v 0.4375 -0.125 0.53125
v 0.3125 -0.8125 0.53125
v 0.4375 -0.8125 0.53125
v 0.3125 -0.8125 -0.53125
v 0.3125 -0.125 -0.65625
v 0.4375 -0.125 -0.65625
v 0.3125 -0.8125 -0.65625
v 0.4375 -0.8125 -0.65625
v 0.4375 -0.8125 -0.53125
v 0.4375 -0.8125 -0.40625
v 0.4375 -0.6875 -0.53125
v 0.4375 -0.125 -0.53125
v 0.3125 -0.8125 -0.40625
v 0.3125 -0.6875 -0.53125
v 0.3125 -0.125 -0.53125
v 0.1875 -0.125 0.53125
v 0.3125 -0.25 0.53125
v 0.3125 -0.25 0.65625
v 0.1875 -0.125 0.65625
v 0.3125 0 0.65625
v 0.3125 0 -0.65625
v 0.1875 -0.125 -0.65625
v 0.3125 -0.25 -0.65625
v 0.1875 -0.125 -0.53125
v 0.3125 -0.25 -0.53125
v 0.1875 0 0.53125
v -0.1875 -0.125 0.46875
v 0.1875 -0.125 0.46875
v -0.25 -0.25 0.46875
v -0.25 -0.25 -0.53125
v 0.25 -0.25 0.46875
v 0.1875 -0.25 0.53125
v -0.1875 -0.25 0.53125
v -0.25 -0.375 0.46875
v -0.25 -0.375 -0.53125
v 0.25 -0.25 -0.53125
v 0.25 -0.375 -0.53125
v 0.25 -0.375 0.46875
v 0.1875 -0.375 0.53125
v -0.1875 -0.25 -0.59375
v 0.1875 -0.25 -0.59375
v -0.1875 -0.375 -0.59375
v 0.1875 -0.375 -0.59375
v -0.1875 -0.375 0.53125
v -0.375 -0.625 -0.53125
v -0.375 -0.375 0.53125
v -0.375 -0.375 -0.53125
v -0.375 -0.625 0.53125
v -0.3125 -0.625 0.53125
v -0.3125 -0.375 -0.53125
v -0.3125 -0.375 0.53125
v -0.3125 -0.625 -0.53125
v 0.3125 -0.375 0.59375
v 0.3125 -0.375 -0.65625
v -0.375 -0.375 0.59375
v -0.375 -0.375 -0.65625
v -0.4375 -0.375 0.53125
v -0.4375 -0.375 -0.65625
v 0.3125 -0.375 0.53125
v -0.125 -0.375 -0.53125
v -0.25 -0.5 -0.53125
v 0.125 -0.5 -0.53125
v 5.551115123125783e-17 -0.375 -0.53125
v 0.125 -0.625 -0.53125
v -0.25 -0.625 -0.53125
v -0.125 -0.75 -0.53125
v 5.551115123125783e-17 -0.75 -0.53125
v -0.125 -0.5 -0.59375
v 5.551115123125783e-17 -0.625 -0.59375
v 5.551115123125783e-17 -0.5 -0.59375
v -0.125 -0.625 -0.59375
v 0.25 -0.5 -0.53125
v 0.25 -0.5 -0.03125
v 0.25 -0.375 -0.03125
v 0.125 -0.5 -0.03125
v 0.125 -0.375 -0.03125
v 0.125 -0.375 -0.53125
v 0.125 -0.625 -0.03125
v 0.25 -0.625 -0.53125
v 0.25 -0.625 -0.03125
v 0 -0.0625 -0.40625
v -0.0625 -0.0625 -0.40625
v 0 -0.0625 -0.34375
v -0.0625 -0.0625 -0.34375
v 0.0625 -0.125 -0.40625
v 0.0625 -0.0625 -0.40625
v 0.0625 -0.125 -0.34375
v 0.0625 -0.0625 -0.34375
v 0 -0.0625 -0.46875
v 0 -0.125 -0.46875
v -0.0625 -0.125 -0.46875
v -0.0625 -0.0625 -0.46875
v -0.125 -0.0625 -0.40625
v -0.125 -0.125 -0.40625
v -0.125 -0.125 -0.34375
v -0.125 -0.0625 -0.34375
v -0.0625 -0.0625 -0.28125
v -0.0625 -0.125 -0.28125
v 0 -0.125 -0.28125
v 0 -0.0625 -0.28125
v -0.4375 -0.53125 0.4375
v -0.4375 -0.46875 0.4375
v -0.4375 -0.53125 0.375
v -0.4375 -0.46875 0.375
v -0.4375 -0.53125 0.3125
v -0.4375 -0.46875 0.3125
v -0.4375 -0.59375 0.4375
v -0.4375 -0.59375 0.375
v -0.4375 -0.40625 0.375
v -0.4375 -0.40625 0.4375
v -0.4375 -0.46875 0.5
v -0.4375 -0.53125 0.5
v -0.375 -0.46875 0.5
v -0.375 -0.53125 0.5
v -0.375 -0.59375 0.4375
v -0.375 -0.40625 0.4375
v -0.375 -0.40625 0.375
v -0.375 -0.59375 0.375
v -0.375 -0.53125 0.3125
v -0.375 -0.46875 0.3125
v -0.03125 -0.5 -0.5943750143051147
v -0.03125 -0.625 -0.5943750143051147
v -0.09375011920928955 -0.625 -0.5943750143051147
v -0.09375011920928955 -0.5 -0.5943750143051147
v -0.04999995231628418 -0.625 -0.5943750143051147
v -0.08124995231628418 -0.5 -0.5943750143051147
v -0.04999995231628418 -0.5 -0.5943750143051147
v -0.08124995231628418 -0.625 -0.5943750143051147
vt 0 0.9853515625
vt 0.001953125 0.9853515625
vt -5.960464477539063e-8 0.970703125
vt 0.0019530653953552246 0.9707030653953552
vt 0.0019531846046447754 1
vt 0.003906309604644775 1
vt 0.00390625 0.9853515028953552
vt 5.960464477539063e-8 1
vt 0.052707962691783905 0.9103092551231384
vt 0.05661420896649361 0.9103092551231384
vt 0.0527079775929451 0.9142155051231384
vt 0.056614216417074203 0.9142155051231384
vt 0.06052045151591301 0.9103092551231384
vt 0.05661420151591301 0.9064030051231384
vt 0.05661420151591301 0.9103092551231384
vt 0.05270794779062271 0.9064030051231384
vt 0.05661419406533241 0.9064030051231384
vt 0.0527079701423645 0.9103092551231384
vt 0.0488017238676548 0.9103092551231384
vt 0.05270795524120331 0.9064030051231384
vt 0.048801738768815994 0.9142155051231384
vt 0.0488017275929451 0.9142155051231384
vt 0.0527079775929451 0.9181217551231384
vt 0.0527079701423645 0.9142155051231384
vt 0.052707985043525696 0.9181217551231384
vt 0.0566142238676548 0.9181217551231384
vt 0.060520466417074203 0.9142155051231384
vt 0.0566142313182354 0.9181217551231384
vt 0.06052045896649361 0.9142155051231384
vt -5.960464477539063e-8 0.96875
vt 0.0039061703719198704 0.9742742776870728
vt -7.923201650328338e-8 0.9742742776870728
vt 0.0039061899296939373 0.96875
vt 0.0039061903953552246 0.9707030057907104
vt 0.0039061903953552246 0.9687498807907104
vt 0.003906191559508443 0.9746092557907104
vt -5.8439013628230896e-8 0.9746092557907104
vt -5.8439013628230896e-8 0.9707030057907104
vt 0.0625 1
vt 0.07421875 0.96875
vt 0.0625 0.96875
vt 0.07421875 1
vt 0.068359375 1
vt 0.06399191915988922 0.96875
vt 0.06835924088954926 0.96875
vt 0.06399205327033997 1
vt 0.06767603754997253 0.9694169759750366
vt 0.07181927561759949 0.9707980155944824
vt 0.06767604500055313 0.972179114818573
vt 0.06767602264881134 0.9694169759750366
vt 0.07204334437847137 0.9694169759750366
vt 0.06767605245113373 0.9811357259750366
vt 0.07204336673021317 0.9811357259750366
vt 0.072265625 1
vt 0.06835924088954926 0.9687500596046448
vt 0.07226549088954926 0.96875
vt 0.06835924834012985 0.96875
vt 0.07272657006978989 0.9687499403953552
vt 0.07272668927907944 1
vt 0.06445299088954926 0.9687500596046448
vt 0.0644531399011612 1
vt 0.06376977264881134 0.9694169759750366
vt 0.06376978009939194 0.972179114818573
vt 0.07421875 0.998046875
vt 0.06985148042440414 0.986328125
vt 0.07421880215406418 0.986328125
vt 0.06985142827033997 0.998046875
vt 0.080078125 0.9921875
vt 0.0761718899011612 0.98046875
vt 0.0800781399011612 0.98046875
vt 0.076171875 0.9921875
vt 0.06376980245113373 0.9811357259750366
vt 0.09375 0.92578125
vt 0.15234375 0.9374997615814209
vt 0.09375005960464478 0.9375
vt 0.15234375 0.9257810115814209
vt 0.00390625 0.962890625
vt 0.037109375 0.9687497615814209
vt 0.003906309604644775 0.96875
vt 0.037109375 0.9628903865814209
vt 0.0371093787252903 0.96484375
vt 0.003906250465661287 0.96484375
vt 0.0371093787252903 0.962890625
vt 0.003906145691871643 0.939453125
vt 0.04296864941716194 0.9394529461860657
vt 0.0429687537252903 0.9628904461860657
vt 0.00390625 0.9609375
vt 0.0429687537252903 0.9609373211860657
vt 0.00588931143283844 0.9260207414627075
vt 0.0003650933504104614 0.8947707414627075
vt 0.0058893561363220215 0.8947707414627075
vt 0.00036503374576568604 0.9260207414627075
vt 0.040903374552726746 0.9371144771575928
vt 0.03537909686565399 0.9058644771575928
vt 0.04090335965156555 0.9058644771575928
vt 0.03537909686565399 0.9371144771575928
vt 0.044809624552726746 0.9371144771575928
vt 0.04480960965156555 0.9058644771575928
vt 0.00979556143283844 0.9260207414627075
vt 0.009795606136322021 0.8947707414627075
vt 0.015319876372814178 0.8947707414627075
vt 0.015319839119911194 0.9260207414627075
vt 0.05033387988805771 0.9058644771575928
vt 0.0503339022397995 0.9371144771575928
vt 0.05424012243747711 0.9058644771575928
vt 0.0542401447892189 0.9371144771575928
vt 0.07617174088954926 0.9687500596046448
vt 0.08007799834012985 0.96875
vt 0.07617181539535522 0.984375
vt 0.08007806539535522 0.984375
vt 0.06445306539535522 0.984375
vt 0.06835931539535522 0.984375
vt 0.08007799088954926 0.9687500596046448
vt 0.08398424834012985 0.96875
vt 0.08398431539535522 0.984375
vt 0.07226549834012985 0.9726563096046448
vt 0.07617174088954926 0.9726563096046448
vt 0.07226549834012985 0.9765625596046448
vt 0.07617174088954926 0.9765625596046448
vt 0.07226549834012985 0.9687500596046448
vt 0.06701944023370743 0.9662968516349792
vt 0.07092568278312683 0.9662968516349792
vt 0.06701944023370743 0.9702031016349792
vt 0.07092568278312683 0.9702031016349792
vt 0.06701944023370743 0.9741093516349792
vt 0.07092568278312683 0.9741093516349792
vt 0.016848066821694374 0.9867116808891296
vt 0.016848089173436165 0.9906179308891296
vt 0.012941804714500904 0.9867116808891296
vt 0.01294182613492012 0.9906179308891296
vt 0.15942619740962982 0.9300710558891296
vt 0.15942621231079102 0.9339773058891296
vt 0.15551993250846863 0.9300710558891296
vt 0.15551994740962982 0.9339773058891296
vn 0 1 0
vn 0 0 1
vn 0.40824991 -0.40824797 0.81649593
vn 0 -0.4472136 0.89442719
vn -0.40824918 -0.40824811 0.81649622
vn -0.44721453 0 0.89442672
vn -0.40824918 0.40824811 0.81649622
vn 0 0.4472136 0.89442719
vn 0.40824991 0.40824797 0.81649593
vn 0.4472153 0 0.89442634
vn 0 0.70710678 -0.70710678
vn 0 -1 0
vn 0 0 -1
vn -1 0 0
vn 1 0 0
vn 0 -0.70710678 0.70710678
vn 0 0.70710678 0.70710678
vn 0 -0.70710678 -0.70710678
vn -0.70710678 0.70710678 0
vn 0.70710678 -0.70710678 0
vn 0.70710678 0.70710678 0
vn -0.70710678 -0.70710678 0
vn -0.89442719 0.4472136 0
vn 0.66666667 0.33333333 0.66666667
vn 0.89442719 0.4472136 0
vn 0.70710678 0 0.70710678
vn 0 0.4472136 -0.89442719
vn -0.66666667 0.33333333 0.66666667
vn -0.70710678 0 0.70710678
vn -0.66666667 0.33333333 -0.66666667
vn -0.70710678 0 -0.70710678
vn 0.70710678 0 -0.70710678
vn 0.66666667 0.33333333 -0.66666667
vn -0.70710678 0.70710678 0.00000108
vn -0.70710771 0.70710585 8.3e-7
vn 0.70710847 0.7071051 7e-8
vn 0.70710678 0.70710678 -3.8e-7
vn 1 0 1e-7
vn -1 0 0.00000153
vn -0.70710678 -0.70710678 0.00000108
vn -0.70710771 -0.70710585 8.3e-7
vn 0.70710847 -0.7071051 7e-8
vn 0.70710678 -0.70710678 -3.8e-7
vn -0.40824829 0.40824829 -0.81649658
vn 0.4472136 0 -0.89442719
vn -0.4472136 0 -0.89442719
vn -0.40824829 -0.40824829 -0.81649658
vn 0.40824829 -0.40824829 -0.81649658
vn 0.40824829 0.40824829 -0.81649658
vn 0 -0.4472136 -0.89442719
vn 0.01999646 0 -0.99980005
vn -0.01999653 0 -0.99980005
g KeyItem_Generator
usemtl 0
f 1/1/1 2/2/1 3/3/1
f 2/2/1 4/4/1 3/3/1
f 5/5/1 6/6/1 2/2/1
f 6/6/1 7/7/1 2/2/1
f 8/8/1 5/5/1 1/1/1
f 5/5/1 2/2/1 1/1/1
f 9/1/1 10/2/1 11/3/1
f 10/2/1 12/4/1 11/3/1
f 13/5/1 14/6/1 10/2/1
f 14/6/1 15/7/1 10/2/1
f 16/8/1 13/5/1 9/1/1
f 13/5/1 10/2/1 9/1/1
f 17/9/2 18/10/2 19/11/2
f 18/10/2 20/12/2 19/11/2
f 21/13/3 22/14/3 18/15/3
f 23/16/4 21/17/4 17/9/4
f 21/17/4 18/15/4 17/9/4
f 17/18/5 24/19/5 23/20/5
f 24/19/6 17/18/6 25/21/6
f 17/18/6 19/11/6 25/21/6
f 26/22/7 25/23/7 19/11/7
f 19/24/8 20/12/8 26/25/8
f 20/12/8 27/26/8 26/25/8
f 20/12/9 28/27/9 27/28/9
f 18/15/10 22/13/10 20/12/10
f 22/13/10 28/29/10 20/12/10
f 29/30/11 30/31/11 31/32/11
f 29/30/11 32/33/11 30/31/11
f 33/3/2 34/6/2 35/8/2
f 33/3/2 36/34/2 34/6/2
f 37/30/12 38/6/12 39/8/12
f 37/30/12 40/35/12 38/6/12
f 41/3/13 42/6/13 43/8/13
f 41/3/13 44/34/13 42/6/13
f 44/3/14 35/6/14 42/8/14
f 44/3/14 33/34/14 35/6/14
f 36/3/15 43/6/15 34/8/15
f 36/3/15 41/34/15 43/6/15
f 40/30/15 41/6/15 38/8/15
f 40/30/15 45/35/15 41/6/15
f 46/3/13 47/6/13 48/8/13
f 46/3/13 49/34/13 47/6/13
f 39/30/14 50/6/14 37/8/14
f 39/30/14 44/35/14 50/6/14
f 39/30/16 36/31/16 33/32/16
f 39/30/16 38/33/16 36/31/16
f 33/36/14 44/37/14 39/38/14
f 38/38/15 41/37/15 36/36/15
f 32/38/15 41/37/15 30/36/15
f 31/36/14 44/37/14 29/38/14
f 51/38/14 50/37/14 52/36/14
f 49/3/14 53/6/14 47/8/14
f 49/3/14 50/34/14 53/6/14
f 54/30/17 52/31/17 55/32/17
f 54/30/17 51/33/17 52/31/17
f 50/3/2 56/6/2 53/8/2
f 50/3/2 45/34/2 56/6/2
f 46/36/15 45/37/15 40/38/15
f 45/3/15 48/6/15 56/8/15
f 45/3/15 46/34/15 48/6/15
f 55/36/15 45/37/15 54/38/15
f 37/38/14 50/37/14 49/36/14
f 40/30/18 49/31/18 46/32/18
f 40/30/18 37/33/18 49/31/18
f 44/3/1 55/6/1 52/8/1
f 44/3/1 41/34/1 55/6/1
f 57/38/13 43/37/13 42/36/13
f 58/38/13 43/37/13 59/36/13
f 60/36/2 34/37/2 61/38/2
f 35/36/2 34/37/2 62/38/2
f 42/32/19 35/31/19 57/30/19
f 35/31/19 62/33/19 57/30/19
f 59/32/20 60/31/20 58/30/20
f 60/31/20 61/33/20 58/30/20
f 47/32/19 53/31/19 63/30/19
f 53/31/19 6/33/19 63/30/19
f 63/38/13 48/37/13 47/36/13
f 64/38/13 48/37/13 65/36/13
f 65/32/20 66/31/20 64/30/20
f 66/31/20 67/33/20 64/30/20
f 66/36/2 56/37/2 67/38/2
f 53/36/2 56/37/2 6/38/2
f 68/32/11 69/31/11 70/30/11
f 69/31/11 71/33/11 70/30/11
f 72/8/2 73/6/2 74/3/2
f 73/6/2 75/34/2 74/3/2
f 76/8/12 77/6/12 78/30/12
f 77/6/12 79/35/12 78/30/12
f 80/8/13 81/6/13 82/3/13
f 81/6/13 83/34/13 82/3/13
f 81/8/15 72/6/15 83/3/15
f 72/6/15 74/34/15 83/3/15
f 73/8/14 80/6/14 75/3/14
f 80/6/14 82/34/14 75/3/14
f 77/8/14 82/6/14 79/30/14
f 82/6/14 84/35/14 79/30/14
f 85/8/13 86/6/13 87/3/13
f 86/6/13 88/34/13 87/3/13
f 78/8/15 89/6/15 76/30/15
f 89/6/15 83/35/15 76/30/15
f 74/32/16 75/31/16 76/30/16
f 75/31/16 77/33/16 76/30/16
f 76/38/15 83/37/15 74/36/15
f 75/36/14 82/37/14 77/38/14
f 69/36/14 82/37/14 71/38/14
f 70/38/15 83/37/15 68/36/15
f 90/36/15 89/37/15 91/38/15
f 86/8/15 92/6/15 88/3/15
f 92/6/15 89/34/15 88/3/15
f 93/32/17 90/31/17 94/30/17
f 90/31/17 91/33/17 94/30/17
f 92/8/2 95/6/2 89/3/2
f 95/6/2 84/34/2 89/3/2
f 79/38/14 84/37/14 87/36/14
f 95/8/14 85/6/14 84/3/14
f 85/6/14 87/34/14 84/3/14
f 94/38/14 84/37/14 93/36/14
f 88/36/15 89/37/15 78/38/15
f 87/32/18 88/31/18 79/30/18
f 88/31/18 78/33/18 79/30/18
f 90/8/1 93/6/1 83/3/1
f 93/6/1 82/34/1 83/3/1
f 81/36/13 80/37/13 11/38/13
f 96/36/13 80/37/13 97/38/13
f 98/38/2 73/37/2 99/36/2
f 100/38/2 73/37/2 72/36/2
f 11/30/21 72/31/21 81/32/21
f 11/30/21 100/33/21 72/31/21
f 97/30/22 99/31/22 96/32/22
f 97/30/22 98/33/22 99/31/22
f 101/30/21 92/31/21 86/32/21
f 101/30/21 16/33/21 92/31/21
f 86/36/13 85/37/13 101/38/13
f 102/36/13 85/37/13 103/38/13
f 103/30/22 104/31/22 102/32/22
f 103/30/22 105/33/22 104/31/22
f 105/38/2 95/37/2 104/36/2
f 16/38/2 95/37/2 92/36/2
f 43/8/13 57/6/13 80/3/13
f 57/6/13 11/34/13 80/3/13
f 57/8/1 62/6/1 11/3/1
f 62/6/1 100/34/1 11/3/1
f 62/8/2 34/6/2 100/38/2
f 34/6/2 73/34/2 100/38/2
f 34/8/12 43/6/12 73/3/12
f 43/6/12 80/34/12 73/3/12
f 48/8/13 63/6/13 85/3/13
f 63/6/13 101/34/13 85/3/13
f 63/8/1 6/6/1 101/3/1
f 6/6/1 16/34/1 101/3/1
f 6/8/2 56/6/2 16/38/2
f 56/6/2 95/34/2 16/38/2
f 56/8/12 48/6/12 95/3/12
f 48/6/12 85/34/12 95/3/12
f 95/8/15 16/6/15 80/30/15
f 16/6/15 11/35/15 80/30/15
f 10/2/1 15/7/1 12/4/1
f 15/7/1 106/34/1 12/4/1
f 96/8/14 106/6/14 104/30/14
f 106/6/14 14/35/14 104/30/14
f 80/8/12 96/6/12 95/30/12
f 96/6/12 104/35/12 95/30/12
f 2/2/1 7/7/1 4/4/1
f 7/7/1 57/34/1 4/4/1
f 43/8/14 57/6/14 56/30/14
f 57/6/14 6/35/14 56/30/14
f 66/8/15 8/6/15 59/30/15
f 8/6/15 3/35/15 59/30/15
f 59/8/12 43/6/12 66/30/12
f 43/6/12 56/35/12 66/30/12
f 107/39/1 104/40/1 66/41/1
f 107/39/1 108/42/1 104/40/1
f 109/43/23 66/44/23 110/45/23
f 109/43/23 107/46/23 66/44/23
f 111/47/24 108/48/24 112/49/24
f 112/50/8 108/51/8 113/52/8
f 108/51/8 107/53/8 113/52/8
f 114/54/14 110/55/14 115/56/14
f 114/54/14 109/43/14 110/55/14
f 116/57/25 104/58/25 111/43/25
f 104/58/25 108/59/25 111/43/25
f 117/60/15 116/57/15 118/61/15
f 116/57/15 111/43/15 118/61/15
f 118/62/26 112/49/26 119/63/26
f 118/62/26 111/47/26 112/49/26
f 120/64/27 104/65/27 121/66/27
f 120/64/27 66/67/27 104/65/27
f 122/68/13 121/69/13 123/70/13
f 122/68/13 120/71/13 121/69/13
f 119/62/2 113/52/2 124/72/2
f 119/62/2 112/50/2 113/52/2
f 113/49/28 107/48/28 109/47/28
f 124/63/29 113/49/29 114/62/29
f 113/49/29 109/47/29 114/62/29
f 110/47/30 66/48/30 120/49/30
f 115/62/31 120/49/31 122/63/31
f 115/62/31 110/47/31 120/49/31
f 123/63/32 121/49/32 117/62/32
f 121/49/32 116/47/32 117/62/32
f 121/49/33 104/48/33 116/47/33
f 125/73/14 126/74/14 127/75/14
f 125/73/14 128/76/14 126/74/14
f 129/77/15 130/78/15 131/79/15
f 129/77/15 132/80/15 130/78/15
f 128/77/12 132/81/12 129/82/12
f 128/77/12 125/83/12 132/81/12
f 133/84/1 134/85/1 135/77/1
f 134/85/1 136/86/1 135/77/1
f 133/84/1 134/85/1 135/87/1
f 134/85/1 136/88/1 135/87/1
f 137/84/12 138/85/12 139/87/12
f 138/85/12 134/88/12 139/87/12
f 25/89/34 140/90/34 141/91/34
f 25/89/35 26/92/35 140/90/35
f 142/93/36 27/94/36 28/95/36
f 142/93/37 143/96/37 27/94/37
f 144/97/38 28/95/38 22/98/38
f 144/97/38 142/93/38 28/95/38
f 24/99/39 141/91/39 145/100/39
f 24/99/39 25/89/39 141/91/39
f 145/100/40 146/101/40 24/99/40
f 146/101/41 23/102/41 24/99/41
f 22/98/42 21/103/42 144/97/42
f 21/103/43 147/104/43 144/97/43
f 21/103/12 23/105/12 147/104/12
f 23/105/12 146/106/12 147/104/12
f 148/12/44 141/27/44 140/28/44
f 144/19/45 149/18/45 142/21/45
f 149/18/45 150/11/45 142/21/45
f 151/15/46 145/13/46 148/12/46
f 145/13/46 141/29/46 148/12/46
f 146/13/47 145/14/47 151/15/47
f 149/18/48 144/19/48 147/20/48
f 143/22/49 142/23/49 150/11/49
f 147/16/50 146/17/50 149/9/50
f 146/17/50 151/15/50 149/9/50
f 150/24/27 148/12/27 143/25/27
f 148/12/27 140/26/27 143/25/27
f 149/9/13 151/10/13 150/11/13
f 151/10/13 148/12/13 150/11/13
f 152/107/15 117/108/15 153/109/15
f 117/108/15 154/110/15 153/109/15
f 155/60/14 156/57/14 142/111/14
f 156/57/14 157/112/14 142/111/14
f 158/60/14 155/57/14 144/111/14
f 155/57/14 142/112/14 144/111/14
f 159/113/15 152/114/15 160/110/15
f 152/114/15 153/115/15 160/110/15
f 142/116/13 157/117/13 152/118/13
f 157/117/13 117/119/13 152/118/13
f 144/120/13 142/107/13 159/116/13
f 142/107/13 152/117/13 159/116/13
f 160/121/2 153/122/2 158/123/2
f 153/122/2 155/124/2 158/123/2
f 153/123/2 154/124/2 155/125/2
f 154/124/2 156/126/2 155/125/2
f 144/60/12 159/57/12 158/111/12
f 159/57/12 160/112/12 158/111/12
f 161/127/1 162/128/1 163/129/1
f 162/128/1 164/130/1 163/129/1
f 165/127/15 166/128/15 167/129/15
f 166/128/15 168/130/15 167/129/15
f 166/127/1 161/128/1 168/129/1
f 161/128/1 163/130/1 168/129/1
f 169/128/1 161/130/1 166/129/1
f 170/127/32 169/128/32 165/129/32
f 169/128/32 166/130/32 165/129/32
f 171/127/13 172/128/13 170/129/13
f 172/128/13 169/130/13 170/129/13
f 173/128/1 162/130/1 172/129/1
f 174/127/31 173/128/31 171/129/31
f 173/128/31 172/130/31 171/129/31
f 172/127/1 162/128/1 169/129/1
f 162/128/1 161/130/1 169/129/1
f 175/127/14 176/128/14 174/129/14
f 176/128/14 173/130/14 174/129/14
f 177/128/1 164/130/1 176/129/1
f 178/127/29 177/128/29 175/129/29
f 177/128/29 176/130/29 175/129/29
f 176/127/1 164/128/1 173/129/1
f 164/128/1 162/130/1 173/129/1
f 179/127/2 180/128/2 178/129/2
f 180/128/2 177/130/2 178/129/2
f 168/128/1 163/130/1 180/129/1
f 167/127/26 168/128/26 179/129/26
f 168/128/26 180/130/26 179/129/26
f 180/127/1 163/128/1 177/129/1
f 163/128/1 164/130/1 177/129/1
f 181/131/14 182/132/14 183/133/14
f 182/132/14 184/134/14 183/133/14
f 185/131/14 183/132/14 186/133/14
f 183/132/14 184/134/14 186/133/14
f 187/131/14 181/132/14 188/133/14
f 181/132/14 183/134/14 188/133/14
f 188/132/14 183/134/14 185/133/14
f 186/132/14 184/134/14 189/133/14
f 189/131/14 184/132/14 190/133/14
f 184/132/14 182/134/14 190/133/14
f 190/132/14 182/134/14 191/133/14
f 191/131/14 182/132/14 192/133/14
f 182/132/14 181/134/14 192/133/14
f 192/132/14 181/134/14 187/133/14
f 193/131/2 191/132/2 194/133/2
f 191/132/2 192/134/2 194/133/2
f 194/131/16 192/132/16 195/133/16
f 192/132/16 187/134/16 195/133/16
f 196/131/17 190/132/17 193/133/17
f 190/132/17 191/134/17 193/133/17
f 197/131/1 189/132/1 196/133/1
f 189/132/1 190/134/1 196/133/1
f 195/131/12 187/132/12 198/133/12
f 187/132/12 188/134/12 198/133/12
f 198/131/18 188/132/18 199/133/18
f 188/132/18 185/134/18 199/133/18
f 199/131/13 185/132/13 200/133/13
f 185/132/13 186/134/13 200/133/13
f 200/131/11 186/132/11 197/133/11
f 186/132/11 189/134/11 197/133/11
f 149/3/51 201/6/51 150/8/51
f 149/3/51 202/34/51 201/6/51
f 203/3/52 148/6/52 204/8/52
f 203/3/52 151/34/52 148/6/52
f 205/3/13 206/6/13 207/8/13
f 205/3/13 208/34/13 206/6/13
