mtllib SafeRoom_Display.mtl
o Default
v 0.4375 1.1875 -0.46875
v -0.4375 2.203125 -0.46875
v 0.4375 2.203125 -0.46875
v -0.4375 1.1875 -0.46875
v 0.3950892984867096 2.2410714626312256 -0.453125
v -0.4174107015132904 3.0535714626312256 -0.453125
v 0.3950892984867096 3.0535714626312256 -0.453125
v -0.4174107015132904 2.2410714626312256 -0.453125
v 1.2992438077926636 2.0283405780792236 -0.7185213565826416
v 0.5828552842140198 2.773599147796631 -0.5131002068519592
v 1.2992438077926636 2.773599147796631 -0.7185213565826416
v 0.5828552842140198 2.0283405780792236 -0.5131002068519592
v 1.1380373239517212 1.163306474685669 -0.8451932072639465
v 0.5744839906692505 1.8689515590667725 -0.4205254018306732
v 1.1380373239517212 1.8689515590667725 -0.8451932072639465
v 0.5744839906692505 1.163306474685669 -0.4205254018306732
v -0.5844447612762451 1.1575000286102295 -0.45967674255371094
v -1.0628056526184082 1.8224999904632568 -0.9216245412826538
v -0.5844447612762451 1.8224999904632568 -0.45967674255371094
v -1.0628056526184082 1.1575000286102295 -0.9216245412826538
v -0.5902111530303955 1.96484375 -0.5404763221740723
v -1.1235538721084595 2.59375 -0.873745858669281
v -0.5902111530303955 2.59375 -0.5404763221740723
v -1.1235538721084595 1.96484375 -0.873745858669281
vt 0 0
vt 1 1
vt 0 1
vt 1 0
vn 0 0 -1
vn -0.27563741 0 -0.96126168
vn -0.60181494 0 -0.79863557
vn 0.69465841 0 -0.71933976
vn 0.52991928 0 -0.84804808
g SafeRoom_Display
usemtl blue ass tileset
f 1/1/1 2/2/1 3/3/1
f 1/1/1 4/4/1 2/2/1
f 5/1/1 6/2/1 7/3/1
f 5/1/1 8/4/1 6/2/1
f 9/1/2 10/2/2 11/3/2
f 9/1/2 12/4/2 10/2/2
f 13/1/3 14/2/3 15/3/3
f 13/1/3 16/4/3 14/2/3
f 17/1/4 18/2/4 19/3/4
f 17/1/4 20/4/4 18/2/4
f 21/1/5 22/2/5 23/3/5
f 21/1/5 24/4/5 22/2/5
